<mxfile host="app.diagrams.net" modified="2021-12-13T05:52:05.451Z" agent="5.0 (Macintosh; Intel Mac OS X 10_15_7) AppleWebKit/537.36 (KHTML, like Gecko) Chrome/96.0.4664.93 Safari/537.36" etag="SxdRdyjtjmyz5q_x8Hzr" version="15.9.1" type="github">
  <diagram id="C5RBs43oDa-KdzZeNtuy" name="Page-1">
    <mxGraphModel dx="2893" dy="1154" grid="1" gridSize="10" guides="1" tooltips="1" connect="1" arrows="0" fold="1" page="1" pageScale="1" pageWidth="827" pageHeight="1169" math="0" shadow="0">
      <root>
        <mxCell id="WIyWlLk6GJQsqaUBKTNV-0" />
        <mxCell id="WIyWlLk6GJQsqaUBKTNV-1" parent="WIyWlLk6GJQsqaUBKTNV-0" />
        <mxCell id="3kLIK0iL_TZrR1ylsM3c-5" value="商品排期" style="swimlane;swimlaneFillColor=#FFFFFF;" vertex="1" parent="WIyWlLk6GJQsqaUBKTNV-1">
          <mxGeometry x="190" y="4429" width="350" height="3111" as="geometry" />
        </mxCell>
        <mxCell id="3kLIK0iL_TZrR1ylsM3c-60" style="edgeStyle=orthogonalEdgeStyle;rounded=0;orthogonalLoop=1;jettySize=auto;html=1;exitX=0.5;exitY=1;exitDx=0;exitDy=0;entryX=0.5;entryY=0;entryDx=0;entryDy=0;" edge="1" parent="3kLIK0iL_TZrR1ylsM3c-5" source="3kLIK0iL_TZrR1ylsM3c-28" target="3kLIK0iL_TZrR1ylsM3c-59">
          <mxGeometry relative="1" as="geometry" />
        </mxCell>
        <mxCell id="3kLIK0iL_TZrR1ylsM3c-28" value="提报排期计划" style="rounded=1;whiteSpace=wrap;html=1;fontColor=#000000;" vertex="1" parent="3kLIK0iL_TZrR1ylsM3c-5">
          <mxGeometry x="107.5" y="718" width="135" height="60" as="geometry" />
        </mxCell>
        <mxCell id="3kLIK0iL_TZrR1ylsM3c-59" value="发送MQ" style="rounded=1;whiteSpace=wrap;html=1;fontColor=#000000;" vertex="1" parent="3kLIK0iL_TZrR1ylsM3c-5">
          <mxGeometry x="107.5" y="828" width="135" height="60" as="geometry" />
        </mxCell>
        <mxCell id="3kLIK0iL_TZrR1ylsM3c-107" style="edgeStyle=orthogonalEdgeStyle;rounded=0;orthogonalLoop=1;jettySize=auto;html=1;exitX=0.5;exitY=1;exitDx=0;exitDy=0;endArrow=classic;endFill=1;" edge="1" parent="3kLIK0iL_TZrR1ylsM3c-5" source="3kLIK0iL_TZrR1ylsM3c-105" target="3kLIK0iL_TZrR1ylsM3c-106">
          <mxGeometry relative="1" as="geometry" />
        </mxCell>
        <mxCell id="3kLIK0iL_TZrR1ylsM3c-105" value="VCS价格审批MQ" style="rounded=1;whiteSpace=wrap;html=1;fillColor=#FFFFFF;" vertex="1" parent="3kLIK0iL_TZrR1ylsM3c-5">
          <mxGeometry x="122.5" y="1761" width="120" height="39" as="geometry" />
        </mxCell>
        <mxCell id="3kLIK0iL_TZrR1ylsM3c-109" style="edgeStyle=orthogonalEdgeStyle;rounded=0;orthogonalLoop=1;jettySize=auto;html=1;exitX=0.5;exitY=1;exitDx=0;exitDy=0;entryX=0.5;entryY=0;entryDx=0;entryDy=0;endArrow=classic;endFill=1;" edge="1" parent="3kLIK0iL_TZrR1ylsM3c-5" source="3kLIK0iL_TZrR1ylsM3c-106" target="3kLIK0iL_TZrR1ylsM3c-108">
          <mxGeometry relative="1" as="geometry" />
        </mxCell>
        <mxCell id="3kLIK0iL_TZrR1ylsM3c-106" value="解析MQ更新排期状态" style="rounded=1;whiteSpace=wrap;html=1;fontColor=#000000;" vertex="1" parent="3kLIK0iL_TZrR1ylsM3c-5">
          <mxGeometry x="122.5" y="1841" width="120" height="39" as="geometry" />
        </mxCell>
        <mxCell id="3kLIK0iL_TZrR1ylsM3c-108" value="发送MQ" style="rounded=1;whiteSpace=wrap;html=1;fontColor=#000000;" vertex="1" parent="3kLIK0iL_TZrR1ylsM3c-5">
          <mxGeometry x="127.5" y="1921" width="110" height="39" as="geometry" />
        </mxCell>
        <mxCell id="3kLIK0iL_TZrR1ylsM3c-162" value="审批完成推送团活动" style="rounded=1;whiteSpace=wrap;html=1;fontColor=#000000;" vertex="1" parent="3kLIK0iL_TZrR1ylsM3c-5">
          <mxGeometry x="133.5" y="2361" width="120" height="39" as="geometry" />
        </mxCell>
        <mxCell id="3kLIK0iL_TZrR1ylsM3c-184" value="团活动删除排期计划" style="rounded=1;whiteSpace=wrap;html=1;fontColor=#000000;" vertex="1" parent="3kLIK0iL_TZrR1ylsM3c-5">
          <mxGeometry x="135.5" y="2821" width="120" height="39" as="geometry" />
        </mxCell>
        <mxCell id="jr9n-zVGgBYkObFRDwpK-24" value="供应商小程序" style="swimlane;swimlaneFillColor=default;" parent="WIyWlLk6GJQsqaUBKTNV-1" vertex="1">
          <mxGeometry x="-660" y="3050" width="270" height="1210" as="geometry" />
        </mxCell>
        <mxCell id="jr9n-zVGgBYkObFRDwpK-55" style="edgeStyle=orthogonalEdgeStyle;rounded=0;orthogonalLoop=1;jettySize=auto;html=1;exitX=0.5;exitY=1;exitDx=0;exitDy=0;entryX=0.5;entryY=0;entryDx=0;entryDy=0;fontColor=#000000;" parent="jr9n-zVGgBYkObFRDwpK-24" source="jr9n-zVGgBYkObFRDwpK-38" target="jr9n-zVGgBYkObFRDwpK-54" edge="1">
          <mxGeometry relative="1" as="geometry" />
        </mxCell>
        <mxCell id="jr9n-zVGgBYkObFRDwpK-38" value="供应商自主提报商品" style="rounded=1;whiteSpace=wrap;html=1;fontColor=#000000;" parent="jr9n-zVGgBYkObFRDwpK-24" vertex="1">
          <mxGeometry x="75" y="60" width="120" height="60" as="geometry" />
        </mxCell>
        <mxCell id="jr9n-zVGgBYkObFRDwpK-42" value="商品底池" style="rounded=0;whiteSpace=wrap;html=1;fontColor=#000000;" parent="jr9n-zVGgBYkObFRDwpK-24" vertex="1">
          <mxGeometry y="22" width="20" height="278" as="geometry" />
        </mxCell>
        <mxCell id="jr9n-zVGgBYkObFRDwpK-52" value="创建排期计划" style="rounded=0;whiteSpace=wrap;html=1;fontColor=#000000;" parent="jr9n-zVGgBYkObFRDwpK-24" vertex="1">
          <mxGeometry y="300" width="20" height="710" as="geometry" />
        </mxCell>
        <mxCell id="jr9n-zVGgBYkObFRDwpK-54" value="加入商品排期数据表" style="rounded=1;whiteSpace=wrap;html=1;fontColor=#000000;" parent="jr9n-zVGgBYkObFRDwpK-24" vertex="1">
          <mxGeometry x="75" y="200" width="120" height="60" as="geometry" />
        </mxCell>
        <mxCell id="jr9n-zVGgBYkObFRDwpK-65" style="edgeStyle=orthogonalEdgeStyle;rounded=0;orthogonalLoop=1;jettySize=auto;html=1;exitX=0.5;exitY=1;exitDx=0;exitDy=0;entryX=0.5;entryY=0;entryDx=0;entryDy=0;fontSize=14;fontColor=#000000;" parent="jr9n-zVGgBYkObFRDwpK-24" source="jr9n-zVGgBYkObFRDwpK-57" target="jr9n-zVGgBYkObFRDwpK-64" edge="1">
          <mxGeometry relative="1" as="geometry" />
        </mxCell>
        <mxCell id="jr9n-zVGgBYkObFRDwpK-57" value="解析MQ" style="rounded=1;whiteSpace=wrap;html=1;fontColor=#000000;" parent="jr9n-zVGgBYkObFRDwpK-24" vertex="1">
          <mxGeometry x="75" y="450" width="120" height="60" as="geometry" />
        </mxCell>
        <mxCell id="jr9n-zVGgBYkObFRDwpK-64" value="修改商品排期数据表" style="rounded=1;whiteSpace=wrap;html=1;fontColor=#000000;" parent="jr9n-zVGgBYkObFRDwpK-24" vertex="1">
          <mxGeometry x="75" y="560" width="120" height="60" as="geometry" />
        </mxCell>
        <mxCell id="jr9n-zVGgBYkObFRDwpK-32" value="商品排期" style="swimlane;swimlaneFillColor=default;" parent="WIyWlLk6GJQsqaUBKTNV-1" vertex="1">
          <mxGeometry x="190" y="3050" width="340" height="1210" as="geometry" />
        </mxCell>
        <mxCell id="jr9n-zVGgBYkObFRDwpK-46" value="商品底池接收数据" style="rounded=1;whiteSpace=wrap;html=1;fontColor=#000000;" parent="jr9n-zVGgBYkObFRDwpK-32" vertex="1">
          <mxGeometry x="102.5" y="190" width="135" height="60" as="geometry" />
        </mxCell>
        <mxCell id="jr9n-zVGgBYkObFRDwpK-60" style="edgeStyle=orthogonalEdgeStyle;rounded=0;orthogonalLoop=1;jettySize=auto;html=1;exitX=0.5;exitY=1;exitDx=0;exitDy=0;fontColor=#000000;" parent="jr9n-zVGgBYkObFRDwpK-32" source="jr9n-zVGgBYkObFRDwpK-56" target="jr9n-zVGgBYkObFRDwpK-59" edge="1">
          <mxGeometry relative="1" as="geometry" />
        </mxCell>
        <mxCell id="jr9n-zVGgBYkObFRDwpK-56" value="商品加入商品底池" style="rounded=1;whiteSpace=wrap;html=1;fontColor=#000000;" parent="jr9n-zVGgBYkObFRDwpK-32" vertex="1">
          <mxGeometry x="102.5" y="340" width="135" height="60" as="geometry" />
        </mxCell>
        <mxCell id="jr9n-zVGgBYkObFRDwpK-59" value="发送加入排期计划MQ" style="rounded=1;whiteSpace=wrap;html=1;fontColor=#000000;" parent="jr9n-zVGgBYkObFRDwpK-32" vertex="1">
          <mxGeometry x="102.5" y="450" width="135" height="60" as="geometry" />
        </mxCell>
        <mxCell id="jr9n-zVGgBYkObFRDwpK-67" value="解析MQ" style="rounded=1;whiteSpace=wrap;html=1;fontColor=#000000;" parent="jr9n-zVGgBYkObFRDwpK-32" vertex="1">
          <mxGeometry x="-775" y="660" width="120" height="60" as="geometry" />
        </mxCell>
        <mxCell id="jr9n-zVGgBYkObFRDwpK-68" value="修改商品排期数据表" style="rounded=1;whiteSpace=wrap;html=1;fontColor=#000000;" parent="jr9n-zVGgBYkObFRDwpK-32" vertex="1">
          <mxGeometry x="-775" y="770" width="120" height="60" as="geometry" />
        </mxCell>
        <mxCell id="jr9n-zVGgBYkObFRDwpK-66" style="edgeStyle=orthogonalEdgeStyle;rounded=0;orthogonalLoop=1;jettySize=auto;html=1;exitX=0.5;exitY=1;exitDx=0;exitDy=0;entryX=0.5;entryY=0;entryDx=0;entryDy=0;fontSize=14;fontColor=#000000;" parent="jr9n-zVGgBYkObFRDwpK-32" source="jr9n-zVGgBYkObFRDwpK-67" target="jr9n-zVGgBYkObFRDwpK-68" edge="1">
          <mxGeometry relative="1" as="geometry" />
        </mxCell>
        <mxCell id="jr9n-zVGgBYkObFRDwpK-70" value="提报排期计划" style="rounded=1;whiteSpace=wrap;html=1;fontColor=#000000;" parent="jr9n-zVGgBYkObFRDwpK-32" vertex="1">
          <mxGeometry x="102.5" y="550" width="135" height="60" as="geometry" />
        </mxCell>
        <mxCell id="jr9n-zVGgBYkObFRDwpK-71" value="发送MQ" style="rounded=1;whiteSpace=wrap;html=1;fontColor=#000000;" parent="jr9n-zVGgBYkObFRDwpK-32" vertex="1">
          <mxGeometry x="102.5" y="660" width="135" height="60" as="geometry" />
        </mxCell>
        <mxCell id="jr9n-zVGgBYkObFRDwpK-69" style="edgeStyle=orthogonalEdgeStyle;rounded=0;orthogonalLoop=1;jettySize=auto;html=1;exitX=0.5;exitY=1;exitDx=0;exitDy=0;fontColor=#000000;" parent="jr9n-zVGgBYkObFRDwpK-32" source="jr9n-zVGgBYkObFRDwpK-70" target="jr9n-zVGgBYkObFRDwpK-71" edge="1">
          <mxGeometry relative="1" as="geometry" />
        </mxCell>
        <mxCell id="jr9n-zVGgBYkObFRDwpK-72" style="edgeStyle=orthogonalEdgeStyle;rounded=0;orthogonalLoop=1;jettySize=auto;html=1;exitX=0;exitY=0.5;exitDx=0;exitDy=0;entryX=1;entryY=0.5;entryDx=0;entryDy=0;fontColor=#000000;" parent="jr9n-zVGgBYkObFRDwpK-32" source="jr9n-zVGgBYkObFRDwpK-71" target="jr9n-zVGgBYkObFRDwpK-67" edge="1">
          <mxGeometry relative="1" as="geometry" />
        </mxCell>
        <mxCell id="jr9n-zVGgBYkObFRDwpK-28" value="BDP" style="swimlane;swimlaneFillColor=default;" parent="WIyWlLk6GJQsqaUBKTNV-1" vertex="1">
          <mxGeometry x="-120" y="3050" width="310" height="1210" as="geometry" />
        </mxCell>
        <mxCell id="jr9n-zVGgBYkObFRDwpK-44" style="edgeStyle=orthogonalEdgeStyle;rounded=0;orthogonalLoop=1;jettySize=auto;html=1;exitX=0.5;exitY=1;exitDx=0;exitDy=0;entryX=0.5;entryY=0;entryDx=0;entryDy=0;fontColor=#000000;" parent="jr9n-zVGgBYkObFRDwpK-28" source="jr9n-zVGgBYkObFRDwpK-41" target="jr9n-zVGgBYkObFRDwpK-43" edge="1">
          <mxGeometry relative="1" as="geometry" />
        </mxCell>
        <mxCell id="jr9n-zVGgBYkObFRDwpK-41" value="抽取自主提报数据" style="rounded=1;whiteSpace=wrap;html=1;fontColor=#000000;" parent="jr9n-zVGgBYkObFRDwpK-28" vertex="1">
          <mxGeometry x="85" y="60" width="140" height="60" as="geometry" />
        </mxCell>
        <mxCell id="jr9n-zVGgBYkObFRDwpK-43" value="加入商品底池表" style="rounded=1;whiteSpace=wrap;html=1;fontColor=#000000;" parent="jr9n-zVGgBYkObFRDwpK-28" vertex="1">
          <mxGeometry x="88" y="190" width="135" height="60" as="geometry" />
        </mxCell>
        <mxCell id="jr9n-zVGgBYkObFRDwpK-63" value="&lt;meta charset=&quot;utf-8&quot;&gt;&lt;span style=&quot;color: rgb(0, 0, 0); font-family: helvetica; font-size: 14px; font-style: normal; font-weight: 400; letter-spacing: normal; text-align: center; text-indent: 0px; text-transform: none; word-spacing: 0px; background-color: rgb(255, 255, 255); display: inline; float: none;&quot;&gt;商品+配送中心+供应商编码+加入排期时的采购价+加入排期时的供货数量+意向坑位+&lt;/span&gt;&lt;font color=&quot;#ff3333&quot; style=&quot;font-family: helvetica; font-size: 14px; font-style: normal; font-weight: 400; letter-spacing: normal; text-align: center; text-indent: 0px; text-transform: none; word-spacing: 0px;&quot;&gt;生产日期+&lt;/font&gt;&lt;span style=&quot;color: rgb(0, 0, 0); font-family: helvetica; font-size: 14px; font-style: normal; font-weight: 400; letter-spacing: normal; text-align: center; text-indent: 0px; text-transform: none; word-spacing: 0px; background-color: rgb(255, 255, 255); display: inline; float: none;&quot;&gt;供货日期+排期状态&lt;/span&gt;&lt;br style=&quot;color: rgb(0, 0, 0); font-family: helvetica; font-size: 14px; font-style: normal; font-weight: 400; letter-spacing: normal; text-align: center; text-indent: 0px; text-transform: none; word-spacing: 0px;&quot;&gt;&lt;span style=&quot;color: rgb(0, 0, 0); font-family: helvetica; font-size: 14px; font-style: normal; font-weight: 400; letter-spacing: normal; text-align: center; text-indent: 0px; text-transform: none; word-spacing: 0px; background-color: rgb(255, 255, 255); display: inline; float: none;&quot;&gt;+排期类型+去确认状态&lt;/span&gt;" style="text;whiteSpace=wrap;html=1;fontSize=14;fontColor=#000000;" parent="jr9n-zVGgBYkObFRDwpK-28" vertex="1">
          <mxGeometry x="10" y="370" width="270" height="70" as="geometry" />
        </mxCell>
        <mxCell id="jr9n-zVGgBYkObFRDwpK-73" value="&lt;meta charset=&quot;utf-8&quot;&gt;&lt;span style=&quot;color: rgb(0, 0, 0); font-family: helvetica; font-size: 14px; font-style: normal; font-weight: 400; letter-spacing: normal; text-align: center; text-indent: 0px; text-transform: none; word-spacing: 0px; background-color: rgb(255, 255, 255); display: inline; float: none;&quot;&gt;商品+配送中心+供应商编码+加入排期时的采购价+加入排期时的供货数量+意向坑位+&lt;/span&gt;&lt;font color=&quot;#ff3333&quot; style=&quot;font-family: helvetica; font-size: 14px; font-style: normal; font-weight: 400; letter-spacing: normal; text-align: center; text-indent: 0px; text-transform: none; word-spacing: 0px;&quot;&gt;生产日期+&lt;/font&gt;&lt;span style=&quot;color: rgb(0, 0, 0); font-family: helvetica; font-size: 14px; font-style: normal; font-weight: 400; letter-spacing: normal; text-align: center; text-indent: 0px; text-transform: none; word-spacing: 0px; background-color: rgb(255, 255, 255); display: inline; float: none;&quot;&gt;供货日期+排期状态&lt;/span&gt;&lt;br style=&quot;color: rgb(0, 0, 0); font-family: helvetica; font-size: 14px; font-style: normal; font-weight: 400; letter-spacing: normal; text-align: center; text-indent: 0px; text-transform: none; word-spacing: 0px;&quot;&gt;&lt;span style=&quot;color: rgb(0, 0, 0); font-family: helvetica; font-size: 14px; font-style: normal; font-weight: 400; letter-spacing: normal; text-align: center; text-indent: 0px; text-transform: none; word-spacing: 0px; background-color: rgb(255, 255, 255); display: inline; float: none;&quot;&gt;+排期类型+去确认状态&lt;/span&gt;" style="text;whiteSpace=wrap;html=1;fontSize=14;fontColor=#000000;" parent="jr9n-zVGgBYkObFRDwpK-28" vertex="1">
          <mxGeometry x="20.5" y="600" width="270" height="70" as="geometry" />
        </mxCell>
        <mxCell id="jr9n-zVGgBYkObFRDwpK-26" value="排期计划服务" style="swimlane;swimlaneFillColor=default;" parent="WIyWlLk6GJQsqaUBKTNV-1" vertex="1">
          <mxGeometry x="-390" y="3050" width="270" height="1210" as="geometry" />
        </mxCell>
        <mxCell id="jr9n-zVGgBYkObFRDwpK-36" value="加入供货确认表" style="rounded=1;whiteSpace=wrap;html=1;fontColor=#000000;" parent="jr9n-zVGgBYkObFRDwpK-26" vertex="1">
          <mxGeometry x="60" y="60" width="140" height="60" as="geometry" />
        </mxCell>
        <mxCell id="WIyWlLk6GJQsqaUBKTNV-2" value="" style="rounded=0;html=1;jettySize=auto;orthogonalLoop=1;fontSize=11;endArrow=block;endFill=0;endSize=8;strokeWidth=1;shadow=0;labelBackgroundColor=none;edgeStyle=orthogonalEdgeStyle;" parent="WIyWlLk6GJQsqaUBKTNV-1" target="WIyWlLk6GJQsqaUBKTNV-6" edge="1">
          <mxGeometry relative="1" as="geometry">
            <mxPoint x="-380" y="625" as="sourcePoint" />
          </mxGeometry>
        </mxCell>
        <mxCell id="WIyWlLk6GJQsqaUBKTNV-4" value="Yes" style="rounded=0;html=1;jettySize=auto;orthogonalLoop=1;fontSize=11;endArrow=block;endFill=0;endSize=8;strokeWidth=1;shadow=0;labelBackgroundColor=none;edgeStyle=orthogonalEdgeStyle;" parent="WIyWlLk6GJQsqaUBKTNV-1" source="WIyWlLk6GJQsqaUBKTNV-6" target="WIyWlLk6GJQsqaUBKTNV-10" edge="1">
          <mxGeometry y="20" relative="1" as="geometry">
            <mxPoint as="offset" />
          </mxGeometry>
        </mxCell>
        <mxCell id="WIyWlLk6GJQsqaUBKTNV-5" value="No" style="edgeStyle=orthogonalEdgeStyle;rounded=0;html=1;jettySize=auto;orthogonalLoop=1;fontSize=11;endArrow=block;endFill=0;endSize=8;strokeWidth=1;shadow=0;labelBackgroundColor=none;" parent="WIyWlLk6GJQsqaUBKTNV-1" source="WIyWlLk6GJQsqaUBKTNV-6" target="WIyWlLk6GJQsqaUBKTNV-7" edge="1">
          <mxGeometry y="10" relative="1" as="geometry">
            <mxPoint as="offset" />
          </mxGeometry>
        </mxCell>
        <mxCell id="WIyWlLk6GJQsqaUBKTNV-6" value="Lamp&lt;br&gt;plugged in?" style="rhombus;whiteSpace=wrap;html=1;shadow=0;fontFamily=Helvetica;fontSize=12;align=center;strokeWidth=1;spacing=6;spacingTop=-4;" parent="WIyWlLk6GJQsqaUBKTNV-1" vertex="1">
          <mxGeometry x="-490" y="720" width="100" height="80" as="geometry" />
        </mxCell>
        <mxCell id="WIyWlLk6GJQsqaUBKTNV-7" value="Plug in lamp" style="rounded=1;whiteSpace=wrap;html=1;fontSize=12;glass=0;strokeWidth=1;shadow=0;" parent="WIyWlLk6GJQsqaUBKTNV-1" vertex="1">
          <mxGeometry x="-340" y="740" width="120" height="40" as="geometry" />
        </mxCell>
        <mxCell id="WIyWlLk6GJQsqaUBKTNV-8" value="No" style="rounded=0;html=1;jettySize=auto;orthogonalLoop=1;fontSize=11;endArrow=block;endFill=0;endSize=8;strokeWidth=1;shadow=0;labelBackgroundColor=none;edgeStyle=orthogonalEdgeStyle;" parent="WIyWlLk6GJQsqaUBKTNV-1" source="WIyWlLk6GJQsqaUBKTNV-10" target="WIyWlLk6GJQsqaUBKTNV-11" edge="1">
          <mxGeometry x="0.3333" y="20" relative="1" as="geometry">
            <mxPoint as="offset" />
          </mxGeometry>
        </mxCell>
        <mxCell id="WIyWlLk6GJQsqaUBKTNV-9" value="Yes" style="edgeStyle=orthogonalEdgeStyle;rounded=0;html=1;jettySize=auto;orthogonalLoop=1;fontSize=11;endArrow=block;endFill=0;endSize=8;strokeWidth=1;shadow=0;labelBackgroundColor=none;" parent="WIyWlLk6GJQsqaUBKTNV-1" source="WIyWlLk6GJQsqaUBKTNV-10" target="WIyWlLk6GJQsqaUBKTNV-12" edge="1">
          <mxGeometry y="10" relative="1" as="geometry">
            <mxPoint as="offset" />
          </mxGeometry>
        </mxCell>
        <mxCell id="WIyWlLk6GJQsqaUBKTNV-10" value="Bulb&lt;br&gt;burned out?" style="rhombus;whiteSpace=wrap;html=1;shadow=0;fontFamily=Helvetica;fontSize=12;align=center;strokeWidth=1;spacing=6;spacingTop=-4;" parent="WIyWlLk6GJQsqaUBKTNV-1" vertex="1">
          <mxGeometry x="-490" y="840" width="100" height="80" as="geometry" />
        </mxCell>
        <mxCell id="WIyWlLk6GJQsqaUBKTNV-11" value="Repair Lamp" style="rounded=1;whiteSpace=wrap;html=1;fontSize=12;glass=0;strokeWidth=1;shadow=0;" parent="WIyWlLk6GJQsqaUBKTNV-1" vertex="1">
          <mxGeometry x="-500" y="980" width="120" height="40" as="geometry" />
        </mxCell>
        <mxCell id="WIyWlLk6GJQsqaUBKTNV-12" value="Replace Bulb" style="rounded=1;whiteSpace=wrap;html=1;fontSize=12;glass=0;strokeWidth=1;shadow=0;" parent="WIyWlLk6GJQsqaUBKTNV-1" vertex="1">
          <mxGeometry x="-340" y="860" width="120" height="40" as="geometry" />
        </mxCell>
        <mxCell id="U8b0iDV6MjVTcAEfl4ah-0" value="商品排期" style="swimlane;fillColor=#FFFFFF;swimlaneFillColor=default;" parent="WIyWlLk6GJQsqaUBKTNV-1" vertex="1">
          <mxGeometry x="-130" y="510" width="380" height="510" as="geometry" />
        </mxCell>
        <mxCell id="U8b0iDV6MjVTcAEfl4ah-10" value="" style="edgeStyle=orthogonalEdgeStyle;rounded=0;orthogonalLoop=1;jettySize=auto;html=1;" parent="U8b0iDV6MjVTcAEfl4ah-0" source="U8b0iDV6MjVTcAEfl4ah-4" target="U8b0iDV6MjVTcAEfl4ah-9" edge="1">
          <mxGeometry relative="1" as="geometry" />
        </mxCell>
        <mxCell id="U8b0iDV6MjVTcAEfl4ah-4" value="商品底池" style="rounded=1;whiteSpace=wrap;html=1;fontSize=12;glass=0;strokeWidth=1;shadow=0;" parent="U8b0iDV6MjVTcAEfl4ah-0" vertex="1">
          <mxGeometry x="120" y="55" width="120" height="40" as="geometry" />
        </mxCell>
        <mxCell id="U8b0iDV6MjVTcAEfl4ah-12" value="" style="edgeStyle=orthogonalEdgeStyle;rounded=0;orthogonalLoop=1;jettySize=auto;html=1;" parent="U8b0iDV6MjVTcAEfl4ah-0" source="U8b0iDV6MjVTcAEfl4ah-9" target="U8b0iDV6MjVTcAEfl4ah-11" edge="1">
          <mxGeometry relative="1" as="geometry" />
        </mxCell>
        <mxCell id="U8b0iDV6MjVTcAEfl4ah-9" value="修改区域非供应商自主排期商品为供应商自主提报商品" style="rounded=1;whiteSpace=wrap;html=1;fontSize=12;glass=0;strokeWidth=1;shadow=0;" parent="U8b0iDV6MjVTcAEfl4ah-0" vertex="1">
          <mxGeometry x="120" y="150" width="120" height="50" as="geometry" />
        </mxCell>
        <mxCell id="U8b0iDV6MjVTcAEfl4ah-16" value="" style="edgeStyle=orthogonalEdgeStyle;rounded=0;orthogonalLoop=1;jettySize=auto;html=1;" parent="U8b0iDV6MjVTcAEfl4ah-0" source="U8b0iDV6MjVTcAEfl4ah-11" target="U8b0iDV6MjVTcAEfl4ah-15" edge="1">
          <mxGeometry relative="1" as="geometry" />
        </mxCell>
        <mxCell id="U8b0iDV6MjVTcAEfl4ah-11" value="采销进行创建排期操作（线上：商品盘点&lt;br&gt;线下：Excel导入）" style="rounded=1;whiteSpace=wrap;html=1;fontSize=12;glass=0;strokeWidth=1;shadow=0;" parent="U8b0iDV6MjVTcAEfl4ah-0" vertex="1">
          <mxGeometry x="120" y="240" width="120" height="50" as="geometry" />
        </mxCell>
        <mxCell id="U8b0iDV6MjVTcAEfl4ah-15" value="同步供应商小程序" style="rounded=1;whiteSpace=wrap;html=1;fontSize=12;glass=0;strokeWidth=1;shadow=0;" parent="U8b0iDV6MjVTcAEfl4ah-0" vertex="1">
          <mxGeometry x="120" y="340" width="120" height="50" as="geometry" />
        </mxCell>
        <mxCell id="U8b0iDV6MjVTcAEfl4ah-1" value="VC小程序" style="swimlane;fillColor=#FFFFFF;swimlaneFillColor=default;" parent="WIyWlLk6GJQsqaUBKTNV-1" vertex="1">
          <mxGeometry x="250" y="510" width="390" height="510" as="geometry" />
        </mxCell>
        <mxCell id="U8b0iDV6MjVTcAEfl4ah-5" value="供应自主排期" style="rounded=1;whiteSpace=wrap;html=1;fontSize=12;glass=0;strokeWidth=1;shadow=0;" parent="U8b0iDV6MjVTcAEfl4ah-1" vertex="1">
          <mxGeometry x="135" y="55" width="120" height="40" as="geometry" />
        </mxCell>
        <mxCell id="U8b0iDV6MjVTcAEfl4ah-13" value="供应自主排期商品信息" style="rounded=1;whiteSpace=wrap;html=1;fontSize=12;glass=0;strokeWidth=1;shadow=0;" parent="U8b0iDV6MjVTcAEfl4ah-1" vertex="1">
          <mxGeometry x="135" y="345" width="125" height="40" as="geometry" />
        </mxCell>
        <mxCell id="U8b0iDV6MjVTcAEfl4ah-6" style="edgeStyle=orthogonalEdgeStyle;rounded=0;orthogonalLoop=1;jettySize=auto;html=1;entryX=1;entryY=0.5;entryDx=0;entryDy=0;" parent="WIyWlLk6GJQsqaUBKTNV-1" source="U8b0iDV6MjVTcAEfl4ah-5" target="U8b0iDV6MjVTcAEfl4ah-4" edge="1">
          <mxGeometry relative="1" as="geometry" />
        </mxCell>
        <mxCell id="U8b0iDV6MjVTcAEfl4ah-8" value="实时提报商品" style="edgeLabel;html=1;align=center;verticalAlign=middle;resizable=0;points=[];" parent="U8b0iDV6MjVTcAEfl4ah-6" vertex="1" connectable="0">
          <mxGeometry x="0.4182" y="-2" relative="1" as="geometry">
            <mxPoint x="60" y="2" as="offset" />
          </mxGeometry>
        </mxCell>
        <mxCell id="U8b0iDV6MjVTcAEfl4ah-17" style="edgeStyle=orthogonalEdgeStyle;rounded=0;orthogonalLoop=1;jettySize=auto;html=1;entryX=0;entryY=0.5;entryDx=0;entryDy=0;" parent="WIyWlLk6GJQsqaUBKTNV-1" source="U8b0iDV6MjVTcAEfl4ah-15" target="U8b0iDV6MjVTcAEfl4ah-13" edge="1">
          <mxGeometry relative="1" as="geometry" />
        </mxCell>
        <mxCell id="U8b0iDV6MjVTcAEfl4ah-18" value="排期商品" style="edgeLabel;html=1;align=center;verticalAlign=middle;resizable=0;points=[];" parent="U8b0iDV6MjVTcAEfl4ah-17" vertex="1" connectable="0">
          <mxGeometry x="-0.0109" relative="1" as="geometry">
            <mxPoint as="offset" />
          </mxGeometry>
        </mxCell>
        <mxCell id="U8b0iDV6MjVTcAEfl4ah-19" value="商品排期" style="swimlane;fillColor=#FFFFFF;swimlaneFillColor=default;" parent="WIyWlLk6GJQsqaUBKTNV-1" vertex="1">
          <mxGeometry x="-130" y="1100" width="380" height="580" as="geometry" />
        </mxCell>
        <mxCell id="U8b0iDV6MjVTcAEfl4ah-53" value="" style="edgeStyle=orthogonalEdgeStyle;rounded=0;orthogonalLoop=1;jettySize=auto;html=1;" parent="U8b0iDV6MjVTcAEfl4ah-19" source="U8b0iDV6MjVTcAEfl4ah-21" target="U8b0iDV6MjVTcAEfl4ah-43" edge="1">
          <mxGeometry relative="1" as="geometry" />
        </mxCell>
        <mxCell id="U8b0iDV6MjVTcAEfl4ah-21" value="商品底池" style="rounded=1;whiteSpace=wrap;html=1;fontSize=12;glass=0;strokeWidth=1;shadow=0;" parent="U8b0iDV6MjVTcAEfl4ah-19" vertex="1">
          <mxGeometry x="120" y="60" width="120" height="40" as="geometry" />
        </mxCell>
        <mxCell id="U8b0iDV6MjVTcAEfl4ah-41" value="" style="edgeStyle=orthogonalEdgeStyle;rounded=0;orthogonalLoop=1;jettySize=auto;html=1;" parent="U8b0iDV6MjVTcAEfl4ah-19" edge="1">
          <mxGeometry relative="1" as="geometry">
            <mxPoint x="180" y="200" as="sourcePoint" />
            <mxPoint x="180" y="280" as="targetPoint" />
          </mxGeometry>
        </mxCell>
        <mxCell id="U8b0iDV6MjVTcAEfl4ah-57" value="否" style="edgeLabel;html=1;align=center;verticalAlign=middle;resizable=0;points=[];" parent="U8b0iDV6MjVTcAEfl4ah-41" vertex="1" connectable="0">
          <mxGeometry x="0.175" relative="1" as="geometry">
            <mxPoint as="offset" />
          </mxGeometry>
        </mxCell>
        <mxCell id="U8b0iDV6MjVTcAEfl4ah-43" value="提报商品是否已加入排期" style="rhombus;whiteSpace=wrap;html=1;fillColor=#FFFFFF;gradientColor=none;" parent="U8b0iDV6MjVTcAEfl4ah-19" vertex="1">
          <mxGeometry x="115" y="150" width="130" height="80" as="geometry" />
        </mxCell>
        <mxCell id="U8b0iDV6MjVTcAEfl4ah-60" value="" style="edgeStyle=orthogonalEdgeStyle;rounded=0;orthogonalLoop=1;jettySize=auto;html=1;" parent="U8b0iDV6MjVTcAEfl4ah-19" source="U8b0iDV6MjVTcAEfl4ah-58" target="U8b0iDV6MjVTcAEfl4ah-59" edge="1">
          <mxGeometry relative="1" as="geometry" />
        </mxCell>
        <mxCell id="U8b0iDV6MjVTcAEfl4ah-58" value="修改区域非供应商自主排期商品为供应商自主提报商品" style="rounded=1;whiteSpace=wrap;html=1;fontSize=12;glass=0;strokeWidth=1;shadow=0;" parent="U8b0iDV6MjVTcAEfl4ah-19" vertex="1">
          <mxGeometry x="125" y="280" width="120" height="50" as="geometry" />
        </mxCell>
        <mxCell id="U8b0iDV6MjVTcAEfl4ah-59" value="采销进行创建排期操作（线上：商品盘点&lt;br&gt;线下：Excel导入）" style="rounded=1;whiteSpace=wrap;html=1;fontSize=12;glass=0;strokeWidth=1;shadow=0;" parent="U8b0iDV6MjVTcAEfl4ah-19" vertex="1">
          <mxGeometry x="125" y="370" width="120" height="50" as="geometry" />
        </mxCell>
        <mxCell id="U8b0iDV6MjVTcAEfl4ah-27" value="VC小程序" style="swimlane;fillColor=#FFFFFF;swimlaneFillColor=default;" parent="WIyWlLk6GJQsqaUBKTNV-1" vertex="1">
          <mxGeometry x="250" y="1100" width="390" height="580" as="geometry" />
        </mxCell>
        <mxCell id="U8b0iDV6MjVTcAEfl4ah-34" value="供应自主排期" style="rounded=1;whiteSpace=wrap;html=1;fontSize=12;glass=0;strokeWidth=1;shadow=0;" parent="U8b0iDV6MjVTcAEfl4ah-27" vertex="1">
          <mxGeometry x="135" y="60" width="120" height="40" as="geometry" />
        </mxCell>
        <mxCell id="U8b0iDV6MjVTcAEfl4ah-35" style="edgeStyle=orthogonalEdgeStyle;rounded=0;orthogonalLoop=1;jettySize=auto;html=1;entryX=1;entryY=0.5;entryDx=0;entryDy=0;" parent="U8b0iDV6MjVTcAEfl4ah-27" source="U8b0iDV6MjVTcAEfl4ah-34" edge="1">
          <mxGeometry relative="1" as="geometry">
            <mxPoint x="-140" y="80" as="targetPoint" />
          </mxGeometry>
        </mxCell>
        <mxCell id="U8b0iDV6MjVTcAEfl4ah-36" value="实时提报商品" style="edgeLabel;html=1;align=center;verticalAlign=middle;resizable=0;points=[];" parent="U8b0iDV6MjVTcAEfl4ah-35" vertex="1" connectable="0">
          <mxGeometry x="0.4182" y="-2" relative="1" as="geometry">
            <mxPoint x="60" y="2" as="offset" />
          </mxGeometry>
        </mxCell>
        <mxCell id="U8b0iDV6MjVTcAEfl4ah-54" value="同步供应商小程序&lt;br&gt;（该商品已加入商品排期）" style="rounded=1;whiteSpace=wrap;html=1;fontSize=12;glass=0;strokeWidth=1;shadow=0;" parent="U8b0iDV6MjVTcAEfl4ah-27" vertex="1">
          <mxGeometry x="135" y="165" width="120" height="50" as="geometry" />
        </mxCell>
        <mxCell id="U8b0iDV6MjVTcAEfl4ah-61" value="同步供应商小程序" style="rounded=1;whiteSpace=wrap;html=1;fontSize=12;glass=0;strokeWidth=1;shadow=0;" parent="U8b0iDV6MjVTcAEfl4ah-27" vertex="1">
          <mxGeometry x="-255" y="480" width="120" height="50" as="geometry" />
        </mxCell>
        <mxCell id="U8b0iDV6MjVTcAEfl4ah-62" value="供应自主排期商品信息" style="rounded=1;whiteSpace=wrap;html=1;fontSize=12;glass=0;strokeWidth=1;shadow=0;" parent="U8b0iDV6MjVTcAEfl4ah-27" vertex="1">
          <mxGeometry x="145" y="485" width="125" height="40" as="geometry" />
        </mxCell>
        <mxCell id="U8b0iDV6MjVTcAEfl4ah-63" style="edgeStyle=orthogonalEdgeStyle;rounded=0;orthogonalLoop=1;jettySize=auto;html=1;entryX=0;entryY=0.5;entryDx=0;entryDy=0;" parent="U8b0iDV6MjVTcAEfl4ah-27" source="U8b0iDV6MjVTcAEfl4ah-61" target="U8b0iDV6MjVTcAEfl4ah-62" edge="1">
          <mxGeometry relative="1" as="geometry" />
        </mxCell>
        <mxCell id="U8b0iDV6MjVTcAEfl4ah-64" value="排期商品" style="edgeLabel;html=1;align=center;verticalAlign=middle;resizable=0;points=[];" parent="U8b0iDV6MjVTcAEfl4ah-63" vertex="1" connectable="0">
          <mxGeometry x="-0.0109" relative="1" as="geometry">
            <mxPoint as="offset" />
          </mxGeometry>
        </mxCell>
        <mxCell id="U8b0iDV6MjVTcAEfl4ah-37" value="供应自主排期商品信息" style="rounded=1;whiteSpace=wrap;html=1;fontSize=12;glass=0;strokeWidth=1;shadow=0;" parent="WIyWlLk6GJQsqaUBKTNV-1" vertex="1">
          <mxGeometry x="-375" y="2915" width="125" height="40" as="geometry" />
        </mxCell>
        <mxCell id="U8b0iDV6MjVTcAEfl4ah-38" style="edgeStyle=orthogonalEdgeStyle;rounded=0;orthogonalLoop=1;jettySize=auto;html=1;entryX=0;entryY=0.5;entryDx=0;entryDy=0;" parent="WIyWlLk6GJQsqaUBKTNV-1" target="U8b0iDV6MjVTcAEfl4ah-37" edge="1">
          <mxGeometry relative="1" as="geometry">
            <mxPoint x="-650" y="2935" as="sourcePoint" />
          </mxGeometry>
        </mxCell>
        <mxCell id="U8b0iDV6MjVTcAEfl4ah-39" value="排期商品" style="edgeLabel;html=1;align=center;verticalAlign=middle;resizable=0;points=[];" parent="U8b0iDV6MjVTcAEfl4ah-38" vertex="1" connectable="0">
          <mxGeometry x="-0.0109" relative="1" as="geometry">
            <mxPoint as="offset" />
          </mxGeometry>
        </mxCell>
        <mxCell id="U8b0iDV6MjVTcAEfl4ah-49" value="" style="edgeStyle=orthogonalEdgeStyle;rounded=0;orthogonalLoop=1;jettySize=auto;html=1;" parent="WIyWlLk6GJQsqaUBKTNV-1" target="U8b0iDV6MjVTcAEfl4ah-51" edge="1">
          <mxGeometry relative="1" as="geometry">
            <mxPoint x="-405" y="2630" as="sourcePoint" />
          </mxGeometry>
        </mxCell>
        <mxCell id="U8b0iDV6MjVTcAEfl4ah-50" value="" style="edgeStyle=orthogonalEdgeStyle;rounded=0;orthogonalLoop=1;jettySize=auto;html=1;" parent="WIyWlLk6GJQsqaUBKTNV-1" source="U8b0iDV6MjVTcAEfl4ah-51" edge="1">
          <mxGeometry relative="1" as="geometry">
            <mxPoint x="-405" y="2775" as="targetPoint" />
          </mxGeometry>
        </mxCell>
        <mxCell id="U8b0iDV6MjVTcAEfl4ah-51" value="采销将商品加入商品排期" style="rounded=1;whiteSpace=wrap;html=1;fontSize=12;glass=0;strokeWidth=1;shadow=0;" parent="WIyWlLk6GJQsqaUBKTNV-1" vertex="1">
          <mxGeometry x="-465" y="2685" width="120" height="50" as="geometry" />
        </mxCell>
        <mxCell id="U8b0iDV6MjVTcAEfl4ah-52" value="接收供应商" style="rounded=1;whiteSpace=wrap;html=1;fontSize=12;glass=0;strokeWidth=1;shadow=0;" parent="WIyWlLk6GJQsqaUBKTNV-1" vertex="1">
          <mxGeometry x="-465" y="2775" width="120" height="50" as="geometry" />
        </mxCell>
        <mxCell id="U8b0iDV6MjVTcAEfl4ah-55" style="edgeStyle=orthogonalEdgeStyle;rounded=0;orthogonalLoop=1;jettySize=auto;html=1;entryX=0;entryY=0.5;entryDx=0;entryDy=0;" parent="WIyWlLk6GJQsqaUBKTNV-1" source="U8b0iDV6MjVTcAEfl4ah-43" target="U8b0iDV6MjVTcAEfl4ah-54" edge="1">
          <mxGeometry relative="1" as="geometry" />
        </mxCell>
        <mxCell id="U8b0iDV6MjVTcAEfl4ah-56" value="是" style="edgeLabel;html=1;align=center;verticalAlign=middle;resizable=0;points=[];" parent="U8b0iDV6MjVTcAEfl4ah-55" vertex="1" connectable="0">
          <mxGeometry x="-0.7407" y="3" relative="1" as="geometry">
            <mxPoint x="100" as="offset" />
          </mxGeometry>
        </mxCell>
        <mxCell id="U8b0iDV6MjVTcAEfl4ah-65" value="" style="edgeStyle=orthogonalEdgeStyle;rounded=0;orthogonalLoop=1;jettySize=auto;html=1;" parent="WIyWlLk6GJQsqaUBKTNV-1" source="U8b0iDV6MjVTcAEfl4ah-59" target="U8b0iDV6MjVTcAEfl4ah-61" edge="1">
          <mxGeometry relative="1" as="geometry" />
        </mxCell>
        <mxCell id="jr9n-zVGgBYkObFRDwpK-0" value="&lt;p class=&quot;p1&quot;&gt;1230供应商小程序&lt;span class=&quot;s1&quot;&gt;-&lt;/span&gt;商品盘点&lt;span class=&quot;s1&quot;&gt;-&lt;/span&gt;排期的数据&lt;/p&gt;" style="text;whiteSpace=wrap;html=1;" parent="WIyWlLk6GJQsqaUBKTNV-1" vertex="1">
          <mxGeometry x="-660" y="1704" width="240" height="50" as="geometry" />
        </mxCell>
        <mxCell id="jr9n-zVGgBYkObFRDwpK-1" value="供应商小程序" style="swimlane;swimlaneFillColor=default;" parent="WIyWlLk6GJQsqaUBKTNV-1" vertex="1">
          <mxGeometry x="-670" y="1754" width="270" height="636" as="geometry" />
        </mxCell>
        <mxCell id="jr9n-zVGgBYkObFRDwpK-6" value="&lt;span style=&quot;font-family: &amp;#34;helvetica&amp;#34;&quot;&gt;供应商自主提报&lt;/span&gt;" style="rounded=1;whiteSpace=wrap;html=1;" parent="jr9n-zVGgBYkObFRDwpK-1" vertex="1">
          <mxGeometry x="70" y="106" width="120" height="37" as="geometry" />
        </mxCell>
        <mxCell id="jr9n-zVGgBYkObFRDwpK-3" value="排期计划服务" style="swimlane;swimlaneFillColor=default;" parent="WIyWlLk6GJQsqaUBKTNV-1" vertex="1">
          <mxGeometry x="-400" y="1754" width="270" height="636" as="geometry" />
        </mxCell>
        <mxCell id="jr9n-zVGgBYkObFRDwpK-7" value="&lt;p class=&quot;p1&quot; style=&quot;margin: 0px ; font-stretch: normal ; font-size: 14px ; line-height: normal ; font-family: &amp;#34;helvetica neue&amp;#34;&quot;&gt;schedule_plan_confirm_supply_chain&lt;/p&gt;&lt;p class=&quot;p1&quot; style=&quot;margin: 0px ; font-stretch: normal ; font-size: 14px ; line-height: normal ; font-family: &amp;#34;helvetica neue&amp;#34;&quot;&gt;加入排期确认表&lt;/p&gt;&lt;p class=&quot;p1&quot; style=&quot;margin: 0px ; font-stretch: normal ; font-size: 14px ; line-height: normal ; font-family: &amp;#34;helvetica neue&amp;#34;&quot;&gt;&lt;font color=&quot;#ff3333&quot;&gt;增加意向坑位字段&lt;/font&gt;&lt;/p&gt;" style="rounded=1;whiteSpace=wrap;html=1;" parent="jr9n-zVGgBYkObFRDwpK-3" vertex="1">
          <mxGeometry x="15" y="91" width="240" height="67" as="geometry" />
        </mxCell>
        <mxCell id="jr9n-zVGgBYkObFRDwpK-4" value="BDP" style="swimlane;swimlaneFillColor=default;" parent="WIyWlLk6GJQsqaUBKTNV-1" vertex="1">
          <mxGeometry x="-130" y="1754" width="530" height="636" as="geometry" />
        </mxCell>
        <mxCell id="jr9n-zVGgBYkObFRDwpK-17" value="" style="edgeStyle=orthogonalEdgeStyle;rounded=0;orthogonalLoop=1;jettySize=auto;html=1;" parent="jr9n-zVGgBYkObFRDwpK-4" source="jr9n-zVGgBYkObFRDwpK-13" target="jr9n-zVGgBYkObFRDwpK-16" edge="1">
          <mxGeometry relative="1" as="geometry" />
        </mxCell>
        <mxCell id="jr9n-zVGgBYkObFRDwpK-13" value="&lt;p class=&quot;p1&quot; style=&quot;margin: 0px ; font-stretch: normal ; font-size: 14px ; line-height: normal ; font-family: &amp;#34;helvetica neue&amp;#34;&quot;&gt;fdm_jxppcms_jxpp_schedule_plan_confirm_supply_chain&lt;/p&gt;&lt;p class=&quot;p1&quot; style=&quot;margin: 0px ; font-stretch: normal ; font-size: 14px ; line-height: normal ; font-family: &amp;#34;helvetica neue&amp;#34;&quot;&gt;限制条件：&lt;span style=&quot;font-family: &amp;#34;helvetica neue&amp;#34;&quot;&gt;plan_status排期状态为&lt;/span&gt;&lt;span class=&quot;s1&quot; style=&quot;font-stretch: normal ; line-height: normal ; font-family: &amp;#34;helvetica neue&amp;#34;&quot;&gt;0-&lt;/span&gt;&lt;span style=&quot;font-family: &amp;#34;pingfang sc&amp;#34;&quot;&gt;待排期&lt;/span&gt;&lt;span style=&quot;font-family: &amp;#34;pingfang sc&amp;#34;&quot;&gt;；&lt;/span&gt;&lt;span class=&quot;s1&quot; style=&quot;font-stretch: normal ; line-height: normal ; font-family: &amp;#34;helvetica neue&amp;#34;&quot;&gt;2-&lt;/span&gt;&lt;span style=&quot;font-family: &amp;#34;pingfang sc&amp;#34;&quot;&gt;排期确认中；&lt;/span&gt;&lt;span class=&quot;s1&quot; style=&quot;font-stretch: normal ; line-height: normal ; font-family: &amp;#34;helvetica neue&amp;#34;&quot;&gt;3-&lt;/span&gt;&lt;span style=&quot;font-family: &amp;#34;pingfang sc&amp;#34;&quot;&gt;已排期；&lt;/span&gt;&lt;/p&gt;&lt;p class=&quot;p1&quot; style=&quot;margin: 0px ; font-stretch: normal ; font-size: 14px ; line-height: normal ; font-family: &amp;#34;helvetica neue&amp;#34;&quot;&gt;&amp;nbsp;is_deleted 删除状态为0非删除&lt;/p&gt;&lt;p class=&quot;p1&quot; style=&quot;margin: 0px ; font-stretch: normal ; font-size: 14px ; line-height: normal ; font-family: &amp;#34;helvetica neue&amp;#34;&quot;&gt;&lt;span class=&quot;Apple-converted-space&quot;&gt;&amp;nbsp;&amp;nbsp;&lt;/span&gt;hidden隐藏状态为非隐藏0&lt;/p&gt;&lt;p class=&quot;p1&quot; style=&quot;margin: 0px ; font-stretch: normal ; font-size: 14px ; line-height: normal ; font-family: &amp;#34;helvetica neue&amp;#34;&quot;&gt;&lt;span class=&quot;Apple-converted-space&quot;&gt;&amp;nbsp;&amp;nbsp; &lt;/span&gt;supply_end_time提报时间当天有效&lt;/p&gt;&lt;p class=&quot;p1&quot; style=&quot;margin: 0px ; font-stretch: normal ; font-size: 14px ; line-height: normal ; font-family: &amp;#34;helvetica neue&amp;#34;&quot;&gt;&lt;font color=&quot;#ff3333&quot;&gt;增加抽取意向坑位&lt;/font&gt;&lt;/p&gt;&lt;p class=&quot;p1&quot; style=&quot;margin: 0px ; font-stretch: normal ; font-size: 14px ; line-height: normal ; font-family: &amp;#34;helvetica neue&amp;#34;&quot;&gt;&lt;span style=&quot;font-family: &amp;#34;pingfang sc&amp;#34;&quot;&gt;&lt;br&gt;&lt;/span&gt;&lt;/p&gt;" style="rounded=1;whiteSpace=wrap;html=1;" parent="jr9n-zVGgBYkObFRDwpK-4" vertex="1">
          <mxGeometry x="30" y="47" width="470" height="155" as="geometry" />
        </mxCell>
        <mxCell id="jr9n-zVGgBYkObFRDwpK-16" value="&lt;p class=&quot;p1&quot; style=&quot;margin: 0px ; font-stretch: normal ; font-size: 14px ; line-height: normal ; font-family: &amp;#34;helvetica neue&amp;#34;&quot;&gt;app_jxpp_s03_selection_result_push_sum&lt;/p&gt;&lt;p class=&quot;p1&quot; style=&quot;margin: 0px ; font-stretch: normal ; font-size: 14px ; line-height: normal ; font-family: &amp;#34;helvetica neue&amp;#34;&quot;&gt;加入商品底池表&lt;/p&gt;&lt;p class=&quot;p1&quot; style=&quot;margin: 0px ; font-stretch: normal ; font-size: 14px ; line-height: normal ; font-family: &amp;#34;helvetica neue&amp;#34;&quot;&gt;&lt;span style=&quot;color: rgb(255 , 51 , 51)&quot;&gt;增加抽取意向坑位&lt;/span&gt;&lt;br&gt;&lt;/p&gt;" style="rounded=1;whiteSpace=wrap;html=1;" parent="jr9n-zVGgBYkObFRDwpK-4" vertex="1">
          <mxGeometry x="130" y="266" width="270" height="60" as="geometry" />
        </mxCell>
        <mxCell id="jr9n-zVGgBYkObFRDwpK-5" value="商品底池" style="swimlane;swimlaneFillColor=default;" parent="WIyWlLk6GJQsqaUBKTNV-1" vertex="1">
          <mxGeometry x="400" y="1754" width="340" height="636" as="geometry" />
        </mxCell>
        <mxCell id="jr9n-zVGgBYkObFRDwpK-18" value="商品底池表&lt;br&gt;同步商品排期&lt;br&gt;&lt;span style=&quot;color: rgb(255 , 51 , 51) ; font-family: &amp;#34;helvetica neue&amp;#34; ; font-size: 14px&quot;&gt;增加抽取意向坑位&lt;/span&gt;" style="rounded=1;whiteSpace=wrap;html=1;" parent="jr9n-zVGgBYkObFRDwpK-5" vertex="1">
          <mxGeometry x="110" y="266" width="120" height="60" as="geometry" />
        </mxCell>
        <mxCell id="jr9n-zVGgBYkObFRDwpK-8" style="edgeStyle=orthogonalEdgeStyle;rounded=0;orthogonalLoop=1;jettySize=auto;html=1;entryX=0;entryY=0.5;entryDx=0;entryDy=0;" parent="WIyWlLk6GJQsqaUBKTNV-1" source="jr9n-zVGgBYkObFRDwpK-6" target="jr9n-zVGgBYkObFRDwpK-7" edge="1">
          <mxGeometry relative="1" as="geometry" />
        </mxCell>
        <mxCell id="jr9n-zVGgBYkObFRDwpK-12" value="&lt;p class=&quot;p1&quot;&gt;sku_id&lt;/p&gt;&lt;p class=&quot;p1&quot;&gt;&lt;span&gt;submission_tm&lt;/span&gt;&lt;/p&gt;&lt;p class=&quot;p1&quot;&gt;supplier_code&lt;/p&gt;&lt;p class=&quot;p1&quot;&gt;supplier_name,&lt;/p&gt;&lt;p class=&quot;p1&quot;&gt;dc_id,&lt;/p&gt;&lt;p class=&quot;p1&quot;&gt;dc_name,&lt;/p&gt;&lt;p class=&quot;p1&quot;&gt;supply_num,&lt;/p&gt;&lt;p class=&quot;p1&quot;&gt;purchase_price,&lt;/p&gt;&lt;br&gt;&lt;p class=&quot;p1&quot;&gt;&lt;span class=&quot;Apple-converted-space&quot;&gt;&amp;nbsp;&amp;nbsp; &lt;/span&gt;sale_price&lt;/p&gt;" style="text;whiteSpace=wrap;html=1;" parent="WIyWlLk6GJQsqaUBKTNV-1" vertex="1">
          <mxGeometry x="-170" y="2630" width="320" height="320" as="geometry" />
        </mxCell>
        <mxCell id="jr9n-zVGgBYkObFRDwpK-14" style="edgeStyle=orthogonalEdgeStyle;rounded=0;orthogonalLoop=1;jettySize=auto;html=1;entryX=0;entryY=0.5;entryDx=0;entryDy=0;" parent="WIyWlLk6GJQsqaUBKTNV-1" source="jr9n-zVGgBYkObFRDwpK-7" target="jr9n-zVGgBYkObFRDwpK-13" edge="1">
          <mxGeometry relative="1" as="geometry" />
        </mxCell>
        <mxCell id="jr9n-zVGgBYkObFRDwpK-19" style="edgeStyle=orthogonalEdgeStyle;rounded=0;orthogonalLoop=1;jettySize=auto;html=1;entryX=0;entryY=0.5;entryDx=0;entryDy=0;" parent="WIyWlLk6GJQsqaUBKTNV-1" source="jr9n-zVGgBYkObFRDwpK-16" target="jr9n-zVGgBYkObFRDwpK-18" edge="1">
          <mxGeometry relative="1" as="geometry" />
        </mxCell>
        <mxCell id="jr9n-zVGgBYkObFRDwpK-20" style="edgeStyle=orthogonalEdgeStyle;rounded=0;orthogonalLoop=1;jettySize=auto;html=1;entryX=0.5;entryY=1;entryDx=0;entryDy=0;exitX=0.5;exitY=1;exitDx=0;exitDy=0;" parent="WIyWlLk6GJQsqaUBKTNV-1" source="jr9n-zVGgBYkObFRDwpK-7" target="jr9n-zVGgBYkObFRDwpK-18" edge="1">
          <mxGeometry relative="1" as="geometry" />
        </mxCell>
        <mxCell id="jr9n-zVGgBYkObFRDwpK-21" value="当天提报信息MQ同步" style="edgeLabel;html=1;align=center;verticalAlign=middle;resizable=0;points=[];" parent="jr9n-zVGgBYkObFRDwpK-20" vertex="1" connectable="0">
          <mxGeometry x="-0.8121" y="4" relative="1" as="geometry">
            <mxPoint as="offset" />
          </mxGeometry>
        </mxCell>
        <mxCell id="jr9n-zVGgBYkObFRDwpK-22" value="" style="rounded=1;whiteSpace=wrap;html=1;fontColor=#FF3333;" parent="WIyWlLk6GJQsqaUBKTNV-1" vertex="1">
          <mxGeometry x="190" y="2530" width="120" height="60" as="geometry" />
        </mxCell>
        <mxCell id="jr9n-zVGgBYkObFRDwpK-23" value="坑位xuan&#39;ping" style="rounded=1;whiteSpace=wrap;html=1;fontColor=#FF3333;" parent="WIyWlLk6GJQsqaUBKTNV-1" vertex="1">
          <mxGeometry x="500" y="2520" width="120" height="60" as="geometry" />
        </mxCell>
        <mxCell id="jr9n-zVGgBYkObFRDwpK-39" style="edgeStyle=orthogonalEdgeStyle;rounded=0;orthogonalLoop=1;jettySize=auto;html=1;exitX=1;exitY=0.5;exitDx=0;exitDy=0;entryX=0;entryY=0.5;entryDx=0;entryDy=0;fontColor=#000000;" parent="WIyWlLk6GJQsqaUBKTNV-1" source="jr9n-zVGgBYkObFRDwpK-38" target="jr9n-zVGgBYkObFRDwpK-36" edge="1">
          <mxGeometry relative="1" as="geometry" />
        </mxCell>
        <mxCell id="jr9n-zVGgBYkObFRDwpK-40" style="edgeStyle=orthogonalEdgeStyle;rounded=0;orthogonalLoop=1;jettySize=auto;html=1;exitX=1;exitY=0.5;exitDx=0;exitDy=0;fontColor=#000000;entryX=0;entryY=0.5;entryDx=0;entryDy=0;" parent="WIyWlLk6GJQsqaUBKTNV-1" source="jr9n-zVGgBYkObFRDwpK-36" target="jr9n-zVGgBYkObFRDwpK-41" edge="1">
          <mxGeometry relative="1" as="geometry">
            <mxPoint x="-50" y="3140" as="targetPoint" />
          </mxGeometry>
        </mxCell>
        <mxCell id="jr9n-zVGgBYkObFRDwpK-45" style="edgeStyle=orthogonalEdgeStyle;rounded=0;orthogonalLoop=1;jettySize=auto;html=1;exitX=1;exitY=0.5;exitDx=0;exitDy=0;entryX=0;entryY=0.5;entryDx=0;entryDy=0;fontColor=#000000;" parent="WIyWlLk6GJQsqaUBKTNV-1" source="jr9n-zVGgBYkObFRDwpK-43" edge="1">
          <mxGeometry relative="1" as="geometry">
            <mxPoint x="290" y="3270" as="targetPoint" />
          </mxGeometry>
        </mxCell>
        <mxCell id="jr9n-zVGgBYkObFRDwpK-47" value="同步商品盘点" style="edgeLabel;html=1;align=center;verticalAlign=middle;resizable=0;points=[];fontColor=#000000;" parent="jr9n-zVGgBYkObFRDwpK-45" vertex="1" connectable="0">
          <mxGeometry x="-0.2692" y="1" relative="1" as="geometry">
            <mxPoint as="offset" />
          </mxGeometry>
        </mxCell>
        <mxCell id="jr9n-zVGgBYkObFRDwpK-49" style="edgeStyle=orthogonalEdgeStyle;rounded=0;orthogonalLoop=1;jettySize=auto;html=1;exitX=0.5;exitY=1;exitDx=0;exitDy=0;entryX=0.5;entryY=1;entryDx=0;entryDy=0;fontColor=#000000;" parent="WIyWlLk6GJQsqaUBKTNV-1" source="jr9n-zVGgBYkObFRDwpK-36" target="jr9n-zVGgBYkObFRDwpK-46" edge="1">
          <mxGeometry relative="1" as="geometry" />
        </mxCell>
        <mxCell id="jr9n-zVGgBYkObFRDwpK-50" value="当天加入排期确认表MQ实时同步商品底池表" style="edgeLabel;html=1;align=center;verticalAlign=middle;resizable=0;points=[];fontColor=#000000;" parent="jr9n-zVGgBYkObFRDwpK-49" vertex="1" connectable="0">
          <mxGeometry x="-0.8228" y="-1" relative="1" as="geometry">
            <mxPoint y="1" as="offset" />
          </mxGeometry>
        </mxCell>
        <mxCell id="jr9n-zVGgBYkObFRDwpK-61" style="edgeStyle=orthogonalEdgeStyle;rounded=0;orthogonalLoop=1;jettySize=auto;html=1;exitX=0;exitY=0.5;exitDx=0;exitDy=0;entryX=1;entryY=0.5;entryDx=0;entryDy=0;fontColor=#000000;" parent="WIyWlLk6GJQsqaUBKTNV-1" source="jr9n-zVGgBYkObFRDwpK-59" target="jr9n-zVGgBYkObFRDwpK-57" edge="1">
          <mxGeometry relative="1" as="geometry" />
        </mxCell>
        <mxCell id="3kLIK0iL_TZrR1ylsM3c-2" value="供应商小程序" style="swimlane;swimlaneFillColor=#FFFFFF;" vertex="1" parent="WIyWlLk6GJQsqaUBKTNV-1">
          <mxGeometry x="-660" y="4430" width="260" height="3110" as="geometry" />
        </mxCell>
        <mxCell id="3kLIK0iL_TZrR1ylsM3c-35" value="商品底池" style="rounded=0;whiteSpace=wrap;html=1;fontColor=#000000;" vertex="1" parent="3kLIK0iL_TZrR1ylsM3c-2">
          <mxGeometry y="23" width="20" height="278" as="geometry" />
        </mxCell>
        <mxCell id="3kLIK0iL_TZrR1ylsM3c-36" value="创建排期计划" style="rounded=0;whiteSpace=wrap;html=1;fontColor=#000000;" vertex="1" parent="3kLIK0iL_TZrR1ylsM3c-2">
          <mxGeometry y="301" width="20" height="909" as="geometry" />
        </mxCell>
        <mxCell id="3kLIK0iL_TZrR1ylsM3c-48" style="edgeStyle=orthogonalEdgeStyle;rounded=0;orthogonalLoop=1;jettySize=auto;html=1;exitX=0.5;exitY=1;exitDx=0;exitDy=0;entryX=0.5;entryY=0;entryDx=0;entryDy=0;" edge="1" parent="3kLIK0iL_TZrR1ylsM3c-2" source="3kLIK0iL_TZrR1ylsM3c-46" target="3kLIK0iL_TZrR1ylsM3c-47">
          <mxGeometry relative="1" as="geometry" />
        </mxCell>
        <mxCell id="3kLIK0iL_TZrR1ylsM3c-49" value="是" style="edgeLabel;html=1;align=center;verticalAlign=middle;resizable=0;points=[];" vertex="1" connectable="0" parent="3kLIK0iL_TZrR1ylsM3c-48">
          <mxGeometry x="-0.4286" y="-2" relative="1" as="geometry">
            <mxPoint as="offset" />
          </mxGeometry>
        </mxCell>
        <mxCell id="3kLIK0iL_TZrR1ylsM3c-51" style="edgeStyle=orthogonalEdgeStyle;rounded=0;orthogonalLoop=1;jettySize=auto;html=1;exitX=1;exitY=0.5;exitDx=0;exitDy=0;entryX=1;entryY=0.5;entryDx=0;entryDy=0;" edge="1" parent="3kLIK0iL_TZrR1ylsM3c-2" source="3kLIK0iL_TZrR1ylsM3c-46" target="3kLIK0iL_TZrR1ylsM3c-50">
          <mxGeometry relative="1" as="geometry" />
        </mxCell>
        <mxCell id="3kLIK0iL_TZrR1ylsM3c-52" value="否" style="edgeLabel;html=1;align=center;verticalAlign=middle;resizable=0;points=[];" vertex="1" connectable="0" parent="3kLIK0iL_TZrR1ylsM3c-51">
          <mxGeometry x="-0.373" y="-4" relative="1" as="geometry">
            <mxPoint y="1" as="offset" />
          </mxGeometry>
        </mxCell>
        <mxCell id="3kLIK0iL_TZrR1ylsM3c-46" value="商品是否已经存在" style="rhombus;whiteSpace=wrap;html=1;fillColor=#FFFFFF;" vertex="1" parent="3kLIK0iL_TZrR1ylsM3c-2">
          <mxGeometry x="70" y="536" width="130" height="65" as="geometry" />
        </mxCell>
        <mxCell id="3kLIK0iL_TZrR1ylsM3c-47" value="&lt;span&gt;修改商品排期数据表&lt;/span&gt;" style="rounded=1;whiteSpace=wrap;html=1;fillColor=#FFFFFF;" vertex="1" parent="3kLIK0iL_TZrR1ylsM3c-2">
          <mxGeometry x="75" y="636" width="120" height="50" as="geometry" />
        </mxCell>
        <mxCell id="3kLIK0iL_TZrR1ylsM3c-50" value="&lt;span&gt;新增商品&lt;/span&gt;" style="rounded=1;whiteSpace=wrap;html=1;fillColor=#FFFFFF;" vertex="1" parent="3kLIK0iL_TZrR1ylsM3c-2">
          <mxGeometry x="75" y="717" width="120" height="50" as="geometry" />
        </mxCell>
        <mxCell id="3kLIK0iL_TZrR1ylsM3c-73" style="edgeStyle=orthogonalEdgeStyle;rounded=0;orthogonalLoop=1;jettySize=auto;html=1;exitX=0.5;exitY=1;exitDx=0;exitDy=0;entryX=0.5;entryY=0;entryDx=0;entryDy=0;" edge="1" parent="3kLIK0iL_TZrR1ylsM3c-2" source="3kLIK0iL_TZrR1ylsM3c-61" target="3kLIK0iL_TZrR1ylsM3c-68">
          <mxGeometry relative="1" as="geometry" />
        </mxCell>
        <mxCell id="3kLIK0iL_TZrR1ylsM3c-61" value="解析MQ" style="rounded=1;whiteSpace=wrap;html=1;fontColor=#000000;" vertex="1" parent="3kLIK0iL_TZrR1ylsM3c-2">
          <mxGeometry x="80" y="828" width="120" height="60" as="geometry" />
        </mxCell>
        <mxCell id="3kLIK0iL_TZrR1ylsM3c-68" value="&lt;span&gt;修改商品排期数据表&lt;/span&gt;" style="rounded=1;whiteSpace=wrap;html=1;fillColor=#FFFFFF;" vertex="1" parent="3kLIK0iL_TZrR1ylsM3c-2">
          <mxGeometry x="80" y="938" width="120" height="50" as="geometry" />
        </mxCell>
        <mxCell id="3kLIK0iL_TZrR1ylsM3c-82" value="排期初审" style="rounded=0;whiteSpace=wrap;html=1;fontColor=#000000;" vertex="1" parent="3kLIK0iL_TZrR1ylsM3c-2">
          <mxGeometry y="1210" width="20" height="510" as="geometry" />
        </mxCell>
        <mxCell id="3kLIK0iL_TZrR1ylsM3c-104" value="供应商确认" style="rounded=0;whiteSpace=wrap;html=1;fontColor=#000000;" vertex="1" parent="3kLIK0iL_TZrR1ylsM3c-2">
          <mxGeometry y="1720" width="20" height="370" as="geometry" />
        </mxCell>
        <mxCell id="3kLIK0iL_TZrR1ylsM3c-111" value="解析MQ" style="rounded=1;whiteSpace=wrap;html=1;fontColor=#000000;" vertex="1" parent="3kLIK0iL_TZrR1ylsM3c-2">
          <mxGeometry x="80" y="1920" width="120" height="40" as="geometry" />
        </mxCell>
        <mxCell id="3kLIK0iL_TZrR1ylsM3c-112" value="&lt;span&gt;修改商品排期数据表&lt;/span&gt;" style="rounded=1;whiteSpace=wrap;html=1;fillColor=#FFFFFF;" vertex="1" parent="3kLIK0iL_TZrR1ylsM3c-2">
          <mxGeometry x="80" y="2000" width="120" height="40" as="geometry" />
        </mxCell>
        <mxCell id="3kLIK0iL_TZrR1ylsM3c-110" style="edgeStyle=orthogonalEdgeStyle;rounded=0;orthogonalLoop=1;jettySize=auto;html=1;exitX=0.5;exitY=1;exitDx=0;exitDy=0;entryX=0.5;entryY=0;entryDx=0;entryDy=0;" edge="1" parent="3kLIK0iL_TZrR1ylsM3c-2" source="3kLIK0iL_TZrR1ylsM3c-111" target="3kLIK0iL_TZrR1ylsM3c-112">
          <mxGeometry relative="1" as="geometry" />
        </mxCell>
        <mxCell id="3kLIK0iL_TZrR1ylsM3c-116" value="阀值审批" style="rounded=0;whiteSpace=wrap;html=1;fontColor=#000000;" vertex="1" parent="3kLIK0iL_TZrR1ylsM3c-2">
          <mxGeometry y="2090" width="20" height="260" as="geometry" />
        </mxCell>
        <mxCell id="3kLIK0iL_TZrR1ylsM3c-140" value="排期计划完成" style="rounded=0;whiteSpace=wrap;html=1;fontColor=#000000;" vertex="1" parent="3kLIK0iL_TZrR1ylsM3c-2">
          <mxGeometry y="2350" width="20" height="760" as="geometry" />
        </mxCell>
        <mxCell id="3kLIK0iL_TZrR1ylsM3c-3" value="排期计划服务" style="swimlane;swimlaneFillColor=#FFFFFF;" vertex="1" parent="WIyWlLk6GJQsqaUBKTNV-1">
          <mxGeometry x="-400" y="4429" width="280" height="3111" as="geometry" />
        </mxCell>
        <mxCell id="3kLIK0iL_TZrR1ylsM3c-4" value="BDP" style="swimlane;swimlaneFillColor=#FFFFFF;" vertex="1" parent="WIyWlLk6GJQsqaUBKTNV-1">
          <mxGeometry x="-120" y="4429" width="310" height="3111" as="geometry" />
        </mxCell>
        <mxCell id="3kLIK0iL_TZrR1ylsM3c-38" style="edgeStyle=orthogonalEdgeStyle;rounded=0;orthogonalLoop=1;jettySize=auto;html=1;exitX=0.5;exitY=1;exitDx=0;exitDy=0;entryX=0.5;entryY=0;entryDx=0;entryDy=0;" edge="1" parent="3kLIK0iL_TZrR1ylsM3c-4" source="3kLIK0iL_TZrR1ylsM3c-6" target="3kLIK0iL_TZrR1ylsM3c-7">
          <mxGeometry relative="1" as="geometry" />
        </mxCell>
        <mxCell id="3kLIK0iL_TZrR1ylsM3c-6" value="供应商自主提报商品" style="rounded=1;whiteSpace=wrap;html=1;fontColor=#000000;" vertex="1" parent="3kLIK0iL_TZrR1ylsM3c-4">
          <mxGeometry x="-465" y="70" width="120" height="60" as="geometry" />
        </mxCell>
        <mxCell id="3kLIK0iL_TZrR1ylsM3c-7" value="加入商品排期数据表" style="rounded=1;whiteSpace=wrap;html=1;fontColor=#000000;" vertex="1" parent="3kLIK0iL_TZrR1ylsM3c-4">
          <mxGeometry x="-465" y="210" width="120" height="60" as="geometry" />
        </mxCell>
        <mxCell id="3kLIK0iL_TZrR1ylsM3c-8" value="商品底池接收数据" style="rounded=1;whiteSpace=wrap;html=1;fontColor=#000000;" vertex="1" parent="3kLIK0iL_TZrR1ylsM3c-4">
          <mxGeometry x="412.5" y="200" width="135" height="60" as="geometry" />
        </mxCell>
        <mxCell id="3kLIK0iL_TZrR1ylsM3c-10" value="抽取自主提报数据" style="rounded=1;whiteSpace=wrap;html=1;fontColor=#000000;" vertex="1" parent="3kLIK0iL_TZrR1ylsM3c-4">
          <mxGeometry x="85" y="70" width="140" height="60" as="geometry" />
        </mxCell>
        <mxCell id="3kLIK0iL_TZrR1ylsM3c-11" value="加入商品底池表" style="rounded=1;whiteSpace=wrap;html=1;fontColor=#000000;" vertex="1" parent="3kLIK0iL_TZrR1ylsM3c-4">
          <mxGeometry x="88" y="200" width="135" height="60" as="geometry" />
        </mxCell>
        <mxCell id="3kLIK0iL_TZrR1ylsM3c-9" style="edgeStyle=orthogonalEdgeStyle;rounded=0;orthogonalLoop=1;jettySize=auto;html=1;exitX=0.5;exitY=1;exitDx=0;exitDy=0;entryX=0.5;entryY=0;entryDx=0;entryDy=0;fontColor=#000000;" edge="1" parent="3kLIK0iL_TZrR1ylsM3c-4" source="3kLIK0iL_TZrR1ylsM3c-10" target="3kLIK0iL_TZrR1ylsM3c-11">
          <mxGeometry relative="1" as="geometry" />
        </mxCell>
        <mxCell id="3kLIK0iL_TZrR1ylsM3c-12" value="加入供货确认表" style="rounded=1;whiteSpace=wrap;html=1;fontColor=#000000;" vertex="1" parent="3kLIK0iL_TZrR1ylsM3c-4">
          <mxGeometry x="-210" y="70" width="140" height="60" as="geometry" />
        </mxCell>
        <mxCell id="3kLIK0iL_TZrR1ylsM3c-13" style="edgeStyle=orthogonalEdgeStyle;rounded=0;orthogonalLoop=1;jettySize=auto;html=1;exitX=1;exitY=0.5;exitDx=0;exitDy=0;entryX=0;entryY=0.5;entryDx=0;entryDy=0;fontColor=#000000;" edge="1" parent="3kLIK0iL_TZrR1ylsM3c-4" source="3kLIK0iL_TZrR1ylsM3c-6" target="3kLIK0iL_TZrR1ylsM3c-12">
          <mxGeometry relative="1" as="geometry" />
        </mxCell>
        <mxCell id="3kLIK0iL_TZrR1ylsM3c-14" style="edgeStyle=orthogonalEdgeStyle;rounded=0;orthogonalLoop=1;jettySize=auto;html=1;exitX=1;exitY=0.5;exitDx=0;exitDy=0;fontColor=#000000;entryX=0;entryY=0.5;entryDx=0;entryDy=0;" edge="1" parent="3kLIK0iL_TZrR1ylsM3c-4" source="3kLIK0iL_TZrR1ylsM3c-12" target="3kLIK0iL_TZrR1ylsM3c-10">
          <mxGeometry relative="1" as="geometry">
            <mxPoint x="70" y="100" as="targetPoint" />
          </mxGeometry>
        </mxCell>
        <mxCell id="3kLIK0iL_TZrR1ylsM3c-15" style="edgeStyle=orthogonalEdgeStyle;rounded=0;orthogonalLoop=1;jettySize=auto;html=1;exitX=1;exitY=0.5;exitDx=0;exitDy=0;entryX=0;entryY=0.5;entryDx=0;entryDy=0;fontColor=#000000;" edge="1" parent="3kLIK0iL_TZrR1ylsM3c-4" source="3kLIK0iL_TZrR1ylsM3c-11">
          <mxGeometry relative="1" as="geometry">
            <mxPoint x="410" y="230" as="targetPoint" />
          </mxGeometry>
        </mxCell>
        <mxCell id="3kLIK0iL_TZrR1ylsM3c-16" value="同步商品盘点" style="edgeLabel;html=1;align=center;verticalAlign=middle;resizable=0;points=[];fontColor=#000000;" vertex="1" connectable="0" parent="3kLIK0iL_TZrR1ylsM3c-15">
          <mxGeometry x="-0.2692" y="1" relative="1" as="geometry">
            <mxPoint as="offset" />
          </mxGeometry>
        </mxCell>
        <mxCell id="3kLIK0iL_TZrR1ylsM3c-17" style="edgeStyle=orthogonalEdgeStyle;rounded=0;orthogonalLoop=1;jettySize=auto;html=1;exitX=0.5;exitY=1;exitDx=0;exitDy=0;entryX=0.5;entryY=1;entryDx=0;entryDy=0;fontColor=#000000;" edge="1" parent="3kLIK0iL_TZrR1ylsM3c-4" source="3kLIK0iL_TZrR1ylsM3c-12" target="3kLIK0iL_TZrR1ylsM3c-8">
          <mxGeometry relative="1" as="geometry" />
        </mxCell>
        <mxCell id="3kLIK0iL_TZrR1ylsM3c-18" value="当天加入排期确认表MQ实时同步商品底池表" style="edgeLabel;html=1;align=center;verticalAlign=middle;resizable=0;points=[];fontColor=#000000;" vertex="1" connectable="0" parent="3kLIK0iL_TZrR1ylsM3c-17">
          <mxGeometry x="-0.8228" y="-1" relative="1" as="geometry">
            <mxPoint y="1" as="offset" />
          </mxGeometry>
        </mxCell>
        <mxCell id="3kLIK0iL_TZrR1ylsM3c-20" value="解析MQ" style="rounded=1;whiteSpace=wrap;html=1;fontColor=#000000;" vertex="1" parent="3kLIK0iL_TZrR1ylsM3c-4">
          <mxGeometry x="-465" y="426" width="120" height="60" as="geometry" />
        </mxCell>
        <mxCell id="3kLIK0iL_TZrR1ylsM3c-19" style="edgeStyle=orthogonalEdgeStyle;rounded=0;orthogonalLoop=1;jettySize=auto;html=1;exitX=0.5;exitY=1;exitDx=0;exitDy=0;entryX=0.5;entryY=0;entryDx=0;entryDy=0;fontSize=14;fontColor=#000000;" edge="1" parent="3kLIK0iL_TZrR1ylsM3c-4" source="3kLIK0iL_TZrR1ylsM3c-20">
          <mxGeometry relative="1" as="geometry">
            <mxPoint x="-405" y="536" as="targetPoint" />
          </mxGeometry>
        </mxCell>
        <mxCell id="3kLIK0iL_TZrR1ylsM3c-23" value="商品加入排期计划" style="rounded=1;whiteSpace=wrap;html=1;fontColor=#000000;" vertex="1" parent="3kLIK0iL_TZrR1ylsM3c-4">
          <mxGeometry x="412.5" y="316" width="135" height="60" as="geometry" />
        </mxCell>
        <mxCell id="3kLIK0iL_TZrR1ylsM3c-24" value="发送加入排期计划MQ" style="rounded=1;whiteSpace=wrap;html=1;fontColor=#000000;" vertex="1" parent="3kLIK0iL_TZrR1ylsM3c-4">
          <mxGeometry x="412.5" y="426" width="135" height="60" as="geometry" />
        </mxCell>
        <mxCell id="3kLIK0iL_TZrR1ylsM3c-32" value="&lt;span style=&quot;color: rgb(0 , 0 , 0) ; font-family: &amp;#34;helvetica&amp;#34; ; font-size: 14px ; font-style: normal ; font-weight: 400 ; letter-spacing: normal ; text-align: center ; text-indent: 0px ; text-transform: none ; word-spacing: 0px ; background-color: rgb(255 , 255 , 255) ; display: inline ; float: none&quot;&gt;商品+商品模式+配送中心+供应商编码+加入排期时的采购价+加入排期时的供货数量+意向坑位+&lt;/span&gt;&lt;font color=&quot;#ff3333&quot; style=&quot;font-family: &amp;#34;helvetica&amp;#34; ; font-size: 14px ; font-style: normal ; font-weight: 400 ; letter-spacing: normal ; text-align: center ; text-indent: 0px ; text-transform: none ; word-spacing: 0px&quot;&gt;生产日期+&lt;/font&gt;&lt;span style=&quot;color: rgb(0 , 0 , 0) ; font-family: &amp;#34;helvetica&amp;#34; ; font-size: 14px ; font-style: normal ; font-weight: 400 ; letter-spacing: normal ; text-align: center ; text-indent: 0px ; text-transform: none ; word-spacing: 0px ; background-color: rgb(255 , 255 , 255) ; display: inline ; float: none&quot;&gt;供货日期+排期状态&lt;/span&gt;&lt;br style=&quot;color: rgb(0 , 0 , 0) ; font-family: &amp;#34;helvetica&amp;#34; ; font-size: 14px ; font-style: normal ; font-weight: 400 ; letter-spacing: normal ; text-align: center ; text-indent: 0px ; text-transform: none ; word-spacing: 0px&quot;&gt;&lt;span style=&quot;color: rgb(0 , 0 , 0) ; font-family: &amp;#34;helvetica&amp;#34; ; font-size: 14px ; font-style: normal ; font-weight: 400 ; letter-spacing: normal ; text-align: center ; text-indent: 0px ; text-transform: none ; word-spacing: 0px ; background-color: rgb(255 , 255 , 255) ; display: inline ; float: none&quot;&gt;+排期类型+去确认状态&lt;/span&gt;" style="text;whiteSpace=wrap;html=1;fontSize=14;fontColor=#000000;" vertex="1" parent="3kLIK0iL_TZrR1ylsM3c-4">
          <mxGeometry x="10" y="346" width="270" height="70" as="geometry" />
        </mxCell>
        <mxCell id="3kLIK0iL_TZrR1ylsM3c-33" value="&lt;span style=&quot;color: rgb(0 , 0 , 0) ; font-family: &amp;#34;helvetica&amp;#34; ; font-size: 14px ; font-style: normal ; font-weight: 400 ; letter-spacing: normal ; text-align: center ; text-indent: 0px ; text-transform: none ; word-spacing: 0px ; background-color: rgb(255 , 255 , 255) ; display: inline ; float: none&quot;&gt;商品+商品模式+配送中心+供应商编码+加入排期时的采购价+加入排期时的供货数量+意向坑位+实际生效采购价+实际生效供货数量+&lt;/span&gt;&lt;font color=&quot;#ff3333&quot; style=&quot;font-family: &amp;#34;helvetica&amp;#34; ; font-size: 14px ; font-style: normal ; font-weight: 400 ; letter-spacing: normal ; text-align: center ; text-indent: 0px ; text-transform: none ; word-spacing: 0px&quot;&gt;生产日期+&lt;/font&gt;&lt;span style=&quot;color: rgb(0 , 0 , 0) ; font-family: &amp;#34;helvetica&amp;#34; ; font-size: 14px ; font-style: normal ; font-weight: 400 ; letter-spacing: normal ; text-align: center ; text-indent: 0px ; text-transform: none ; word-spacing: 0px ; background-color: rgb(255 , 255 , 255) ; display: inline ; float: none&quot;&gt;供货日期+排期状态&lt;/span&gt;&lt;br style=&quot;color: rgb(0 , 0 , 0) ; font-family: &amp;#34;helvetica&amp;#34; ; font-size: 14px ; font-style: normal ; font-weight: 400 ; letter-spacing: normal ; text-align: center ; text-indent: 0px ; text-transform: none ; word-spacing: 0px&quot;&gt;&lt;span style=&quot;color: rgb(0 , 0 , 0) ; font-family: &amp;#34;helvetica&amp;#34; ; font-size: 14px ; font-style: normal ; font-weight: 400 ; letter-spacing: normal ; text-align: center ; text-indent: 0px ; text-transform: none ; word-spacing: 0px ; background-color: rgb(255 , 255 , 255) ; display: inline ; float: none&quot;&gt;+排期类型+去确认状态&lt;/span&gt;" style="text;whiteSpace=wrap;html=1;fontSize=14;fontColor=#000000;" vertex="1" parent="3kLIK0iL_TZrR1ylsM3c-4">
          <mxGeometry x="20" y="759" width="270" height="70" as="geometry" />
        </mxCell>
        <mxCell id="3kLIK0iL_TZrR1ylsM3c-22" style="edgeStyle=orthogonalEdgeStyle;rounded=0;orthogonalLoop=1;jettySize=auto;html=1;exitX=0.5;exitY=1;exitDx=0;exitDy=0;fontColor=#000000;" edge="1" parent="3kLIK0iL_TZrR1ylsM3c-4" source="3kLIK0iL_TZrR1ylsM3c-23" target="3kLIK0iL_TZrR1ylsM3c-24">
          <mxGeometry relative="1" as="geometry" />
        </mxCell>
        <mxCell id="3kLIK0iL_TZrR1ylsM3c-34" style="edgeStyle=orthogonalEdgeStyle;rounded=0;orthogonalLoop=1;jettySize=auto;html=1;exitX=0;exitY=0.5;exitDx=0;exitDy=0;entryX=1;entryY=0.5;entryDx=0;entryDy=0;fontColor=#000000;" edge="1" parent="3kLIK0iL_TZrR1ylsM3c-4" source="3kLIK0iL_TZrR1ylsM3c-24" target="3kLIK0iL_TZrR1ylsM3c-20">
          <mxGeometry relative="1" as="geometry" />
        </mxCell>
        <mxCell id="3kLIK0iL_TZrR1ylsM3c-37" value="" style="endArrow=none;html=1;rounded=0;" edge="1" parent="3kLIK0iL_TZrR1ylsM3c-4">
          <mxGeometry width="50" height="50" relative="1" as="geometry">
            <mxPoint x="-520" y="301" as="sourcePoint" />
            <mxPoint x="660" y="301" as="targetPoint" />
          </mxGeometry>
        </mxCell>
        <mxCell id="3kLIK0iL_TZrR1ylsM3c-186" value="&lt;span style=&quot;color: rgb(0 , 0 , 0) ; font-size: 14px ; font-style: normal ; font-weight: 400 ; letter-spacing: normal ; text-indent: 0px ; text-transform: none ; word-spacing: 0px ; font-family: &amp;#34;helvetica&amp;#34; ; text-align: center ; background-color: rgb(255 , 255 , 255) ; display: inline ; float: none&quot;&gt;商品+商品模式+配送中心+供应商编码+加入排期时的采购价+加入排期时的供货数量+意向坑位+实际生效采购价+实际生效供货数量+&lt;/span&gt;&lt;font color=&quot;#ff3333&quot; style=&quot;font-size: 14px ; font-style: normal ; font-weight: 400 ; letter-spacing: normal ; text-indent: 0px ; text-transform: none ; word-spacing: 0px ; background-color: rgb(248 , 249 , 250) ; font-family: &amp;#34;helvetica&amp;#34; ; text-align: center&quot;&gt;生产日期+&lt;/font&gt;&lt;span style=&quot;color: rgb(0 , 0 , 0) ; font-size: 14px ; font-style: normal ; font-weight: 400 ; letter-spacing: normal ; text-indent: 0px ; text-transform: none ; word-spacing: 0px ; font-family: &amp;#34;helvetica&amp;#34; ; text-align: center ; background-color: rgb(255 , 255 , 255) ; display: inline ; float: none&quot;&gt;供货日期+排期状态&lt;/span&gt;&lt;span style=&quot;color: rgb(0 , 0 , 0) ; font-size: 14px ; font-style: normal ; font-weight: 400 ; letter-spacing: normal ; text-indent: 0px ; text-transform: none ; word-spacing: 0px ; font-family: &amp;#34;helvetica&amp;#34; ; text-align: center ; background-color: rgb(255 , 255 , 255) ; display: inline ; float: none&quot;&gt;+排期类型+去确认状态&lt;/span&gt;" style="text;whiteSpace=wrap;html=1;" vertex="1" parent="3kLIK0iL_TZrR1ylsM3c-4">
          <mxGeometry x="30" y="931" width="240" height="99" as="geometry" />
        </mxCell>
        <mxCell id="3kLIK0iL_TZrR1ylsM3c-189" value="&lt;span style=&quot;color: rgb(0 , 0 , 0) ; font-size: 14px ; font-style: normal ; font-weight: 400 ; letter-spacing: normal ; text-indent: 0px ; text-transform: none ; word-spacing: 0px ; font-family: &amp;#34;helvetica&amp;#34; ; text-align: center ; background-color: rgb(255 , 255 , 255) ; display: inline ; float: none&quot;&gt;商品+商品模式+配送中心+供应商编码+加入排期时的采购价+加入排期时的供货数量+意向坑位+实际生效采购价+实际生效供货数量+&lt;/span&gt;&lt;font color=&quot;#ff3333&quot; style=&quot;font-size: 14px ; font-style: normal ; font-weight: 400 ; letter-spacing: normal ; text-indent: 0px ; text-transform: none ; word-spacing: 0px ; background-color: rgb(248 , 249 , 250) ; font-family: &amp;#34;helvetica&amp;#34; ; text-align: center&quot;&gt;生产日期+&lt;/font&gt;&lt;span style=&quot;color: rgb(0 , 0 , 0) ; font-size: 14px ; font-style: normal ; font-weight: 400 ; letter-spacing: normal ; text-indent: 0px ; text-transform: none ; word-spacing: 0px ; font-family: &amp;#34;helvetica&amp;#34; ; text-align: center ; background-color: rgb(255 , 255 , 255) ; display: inline ; float: none&quot;&gt;供货日期+排期状态&lt;/span&gt;&lt;span style=&quot;color: rgb(0 , 0 , 0) ; font-size: 14px ; font-style: normal ; font-weight: 400 ; letter-spacing: normal ; text-indent: 0px ; text-transform: none ; word-spacing: 0px ; font-family: &amp;#34;helvetica&amp;#34; ; text-align: center ; background-color: rgb(255 , 255 , 255) ; display: inline ; float: none&quot;&gt;+排期类型+去确认状态&lt;/span&gt;" style="text;whiteSpace=wrap;html=1;" vertex="1" parent="3kLIK0iL_TZrR1ylsM3c-4">
          <mxGeometry x="30" y="1261" width="240" height="99" as="geometry" />
        </mxCell>
        <mxCell id="3kLIK0iL_TZrR1ylsM3c-190" value="&lt;span style=&quot;color: rgb(0 , 0 , 0) ; font-size: 14px ; font-style: normal ; font-weight: 400 ; letter-spacing: normal ; text-indent: 0px ; text-transform: none ; word-spacing: 0px ; font-family: &amp;#34;helvetica&amp;#34; ; text-align: center ; background-color: rgb(255 , 255 , 255) ; display: inline ; float: none&quot;&gt;商品+商品模式+配送中心+供应商编码+加入排期时的采购价+加入排期时的供货数量+意向坑位+实际生效采购价+实际生效供货数量+&lt;/span&gt;&lt;font color=&quot;#ff3333&quot; style=&quot;font-size: 14px ; font-style: normal ; font-weight: 400 ; letter-spacing: normal ; text-indent: 0px ; text-transform: none ; word-spacing: 0px ; background-color: rgb(248 , 249 , 250) ; font-family: &amp;#34;helvetica&amp;#34; ; text-align: center&quot;&gt;生产日期+&lt;/font&gt;&lt;span style=&quot;color: rgb(0 , 0 , 0) ; font-size: 14px ; font-style: normal ; font-weight: 400 ; letter-spacing: normal ; text-indent: 0px ; text-transform: none ; word-spacing: 0px ; font-family: &amp;#34;helvetica&amp;#34; ; text-align: center ; background-color: rgb(255 , 255 , 255) ; display: inline ; float: none&quot;&gt;供货日期+排期状态&lt;/span&gt;&lt;span style=&quot;color: rgb(0 , 0 , 0) ; font-size: 14px ; font-style: normal ; font-weight: 400 ; letter-spacing: normal ; text-indent: 0px ; text-transform: none ; word-spacing: 0px ; font-family: &amp;#34;helvetica&amp;#34; ; text-align: center ; background-color: rgb(255 , 255 , 255) ; display: inline ; float: none&quot;&gt;+排期类型+去确认状态&lt;/span&gt;" style="text;whiteSpace=wrap;html=1;" vertex="1" parent="3kLIK0iL_TZrR1ylsM3c-4">
          <mxGeometry x="40" y="1451" width="240" height="99" as="geometry" />
        </mxCell>
        <mxCell id="3kLIK0iL_TZrR1ylsM3c-191" value="&lt;span style=&quot;color: rgb(0 , 0 , 0) ; font-size: 14px ; font-style: normal ; font-weight: 400 ; letter-spacing: normal ; text-indent: 0px ; text-transform: none ; word-spacing: 0px ; font-family: &amp;#34;helvetica&amp;#34; ; text-align: center ; background-color: rgb(255 , 255 , 255) ; display: inline ; float: none&quot;&gt;商品+商品模式+配送中心+供应商编码+加入排期时的采购价+加入排期时的供货数量+意向坑位+实际生效采购价+实际生效供货数量+&lt;/span&gt;&lt;font color=&quot;#ff3333&quot; style=&quot;font-size: 14px ; font-style: normal ; font-weight: 400 ; letter-spacing: normal ; text-indent: 0px ; text-transform: none ; word-spacing: 0px ; background-color: rgb(248 , 249 , 250) ; font-family: &amp;#34;helvetica&amp;#34; ; text-align: center&quot;&gt;生产日期+&lt;/font&gt;&lt;span style=&quot;color: rgb(0 , 0 , 0) ; font-size: 14px ; font-style: normal ; font-weight: 400 ; letter-spacing: normal ; text-indent: 0px ; text-transform: none ; word-spacing: 0px ; font-family: &amp;#34;helvetica&amp;#34; ; text-align: center ; background-color: rgb(255 , 255 , 255) ; display: inline ; float: none&quot;&gt;供货日期+排期状态&lt;/span&gt;&lt;span style=&quot;color: rgb(0 , 0 , 0) ; font-size: 14px ; font-style: normal ; font-weight: 400 ; letter-spacing: normal ; text-indent: 0px ; text-transform: none ; word-spacing: 0px ; font-family: &amp;#34;helvetica&amp;#34; ; text-align: center ; background-color: rgb(255 , 255 , 255) ; display: inline ; float: none&quot;&gt;+排期类型+去确认状态&lt;/span&gt;" style="text;whiteSpace=wrap;html=1;" vertex="1" parent="3kLIK0iL_TZrR1ylsM3c-4">
          <mxGeometry x="45" y="1831" width="240" height="99" as="geometry" />
        </mxCell>
        <mxCell id="3kLIK0iL_TZrR1ylsM3c-192" value="&lt;span style=&quot;color: rgb(0 , 0 , 0) ; font-size: 14px ; font-style: normal ; font-weight: 400 ; letter-spacing: normal ; text-indent: 0px ; text-transform: none ; word-spacing: 0px ; font-family: &amp;#34;helvetica&amp;#34; ; text-align: center ; background-color: rgb(255 , 255 , 255) ; display: inline ; float: none&quot;&gt;商品+商品模式+配送中心+供应商编码+加入排期时的采购价+加入排期时的供货数量+意向坑位+实际生效采购价+实际生效供货数量+&lt;/span&gt;&lt;font color=&quot;#ff3333&quot; style=&quot;font-size: 14px ; font-style: normal ; font-weight: 400 ; letter-spacing: normal ; text-indent: 0px ; text-transform: none ; word-spacing: 0px ; background-color: rgb(248 , 249 , 250) ; font-family: &amp;#34;helvetica&amp;#34; ; text-align: center&quot;&gt;生产日期+&lt;/font&gt;&lt;span style=&quot;color: rgb(0 , 0 , 0) ; font-size: 14px ; font-style: normal ; font-weight: 400 ; letter-spacing: normal ; text-indent: 0px ; text-transform: none ; word-spacing: 0px ; font-family: &amp;#34;helvetica&amp;#34; ; text-align: center ; background-color: rgb(255 , 255 , 255) ; display: inline ; float: none&quot;&gt;供货日期+排期状态&lt;/span&gt;&lt;span style=&quot;color: rgb(0 , 0 , 0) ; font-size: 14px ; font-style: normal ; font-weight: 400 ; letter-spacing: normal ; text-indent: 0px ; text-transform: none ; word-spacing: 0px ; font-family: &amp;#34;helvetica&amp;#34; ; text-align: center ; background-color: rgb(255 , 255 , 255) ; display: inline ; float: none&quot;&gt;+排期类型+去确认状态&lt;/span&gt;" style="text;whiteSpace=wrap;html=1;" vertex="1" parent="3kLIK0iL_TZrR1ylsM3c-4">
          <mxGeometry x="40" y="2101" width="240" height="99" as="geometry" />
        </mxCell>
        <mxCell id="3kLIK0iL_TZrR1ylsM3c-193" value="&lt;span style=&quot;color: rgb(0 , 0 , 0) ; font-size: 14px ; font-style: normal ; font-weight: 400 ; letter-spacing: normal ; text-indent: 0px ; text-transform: none ; word-spacing: 0px ; font-family: &amp;#34;helvetica&amp;#34; ; text-align: center ; background-color: rgb(255 , 255 , 255) ; display: inline ; float: none&quot;&gt;商品+商品模式+配送中心+供应商编码+加入排期时的采购价+加入排期时的供货数量+意向坑位+实际生效采购价+实际生效供货数量+&lt;/span&gt;&lt;font color=&quot;#ff3333&quot; style=&quot;font-size: 14px ; font-style: normal ; font-weight: 400 ; letter-spacing: normal ; text-indent: 0px ; text-transform: none ; word-spacing: 0px ; background-color: rgb(248 , 249 , 250) ; font-family: &amp;#34;helvetica&amp;#34; ; text-align: center&quot;&gt;生产日期+&lt;/font&gt;&lt;span style=&quot;color: rgb(0 , 0 , 0) ; font-size: 14px ; font-style: normal ; font-weight: 400 ; letter-spacing: normal ; text-indent: 0px ; text-transform: none ; word-spacing: 0px ; font-family: &amp;#34;helvetica&amp;#34; ; text-align: center ; background-color: rgb(255 , 255 , 255) ; display: inline ; float: none&quot;&gt;供货日期+排期状态&lt;/span&gt;&lt;span style=&quot;color: rgb(0 , 0 , 0) ; font-size: 14px ; font-style: normal ; font-weight: 400 ; letter-spacing: normal ; text-indent: 0px ; text-transform: none ; word-spacing: 0px ; font-family: &amp;#34;helvetica&amp;#34; ; text-align: center ; background-color: rgb(255 , 255 , 255) ; display: inline ; float: none&quot;&gt;+排期类型+去确认状态&lt;/span&gt;" style="text;whiteSpace=wrap;html=1;" vertex="1" parent="3kLIK0iL_TZrR1ylsM3c-4">
          <mxGeometry x="45" y="2421" width="240" height="99" as="geometry" />
        </mxCell>
        <mxCell id="3kLIK0iL_TZrR1ylsM3c-194" value="&lt;span style=&quot;color: rgb(0 , 0 , 0) ; font-size: 14px ; font-style: normal ; font-weight: 400 ; letter-spacing: normal ; text-indent: 0px ; text-transform: none ; word-spacing: 0px ; font-family: &amp;#34;helvetica&amp;#34; ; text-align: center ; background-color: rgb(255 , 255 , 255) ; display: inline ; float: none&quot;&gt;商品+商品模式+配送中心+供应商编码+加入排期时的采购价+加入排期时的供货数量+意向坑位+实际生效采购价+实际生效供货数量+&lt;/span&gt;&lt;font color=&quot;#ff3333&quot; style=&quot;font-size: 14px ; font-style: normal ; font-weight: 400 ; letter-spacing: normal ; text-indent: 0px ; text-transform: none ; word-spacing: 0px ; background-color: rgb(248 , 249 , 250) ; font-family: &amp;#34;helvetica&amp;#34; ; text-align: center&quot;&gt;生产日期+&lt;/font&gt;&lt;span style=&quot;color: rgb(0 , 0 , 0) ; font-size: 14px ; font-style: normal ; font-weight: 400 ; letter-spacing: normal ; text-indent: 0px ; text-transform: none ; word-spacing: 0px ; font-family: &amp;#34;helvetica&amp;#34; ; text-align: center ; background-color: rgb(255 , 255 , 255) ; display: inline ; float: none&quot;&gt;供货日期+排期状态&lt;/span&gt;&lt;span style=&quot;color: rgb(0 , 0 , 0) ; font-size: 14px ; font-style: normal ; font-weight: 400 ; letter-spacing: normal ; text-indent: 0px ; text-transform: none ; word-spacing: 0px ; font-family: &amp;#34;helvetica&amp;#34; ; text-align: center ; background-color: rgb(255 , 255 , 255) ; display: inline ; float: none&quot;&gt;+排期类型+去确认状态&lt;/span&gt;" style="text;whiteSpace=wrap;html=1;" vertex="1" parent="3kLIK0iL_TZrR1ylsM3c-4">
          <mxGeometry x="40" y="2651" width="240" height="99" as="geometry" />
        </mxCell>
        <mxCell id="3kLIK0iL_TZrR1ylsM3c-195" value="&lt;span style=&quot;color: rgb(0 , 0 , 0) ; font-size: 14px ; font-style: normal ; font-weight: 400 ; letter-spacing: normal ; text-indent: 0px ; text-transform: none ; word-spacing: 0px ; font-family: &amp;#34;helvetica&amp;#34; ; text-align: center ; background-color: rgb(255 , 255 , 255) ; display: inline ; float: none&quot;&gt;商品+商品模式+配送中心+供应商编码+加入排期时的采购价+加入排期时的供货数量+意向坑位+实际生效采购价+实际生效供货数量+&lt;/span&gt;&lt;font color=&quot;#ff3333&quot; style=&quot;font-size: 14px ; font-style: normal ; font-weight: 400 ; letter-spacing: normal ; text-indent: 0px ; text-transform: none ; word-spacing: 0px ; background-color: rgb(248 , 249 , 250) ; font-family: &amp;#34;helvetica&amp;#34; ; text-align: center&quot;&gt;生产日期+&lt;/font&gt;&lt;span style=&quot;color: rgb(0 , 0 , 0) ; font-size: 14px ; font-style: normal ; font-weight: 400 ; letter-spacing: normal ; text-indent: 0px ; text-transform: none ; word-spacing: 0px ; font-family: &amp;#34;helvetica&amp;#34; ; text-align: center ; background-color: rgb(255 , 255 , 255) ; display: inline ; float: none&quot;&gt;供货日期+排期状态&lt;/span&gt;&lt;span style=&quot;color: rgb(0 , 0 , 0) ; font-size: 14px ; font-style: normal ; font-weight: 400 ; letter-spacing: normal ; text-indent: 0px ; text-transform: none ; word-spacing: 0px ; font-family: &amp;#34;helvetica&amp;#34; ; text-align: center ; background-color: rgb(255 , 255 , 255) ; display: inline ; float: none&quot;&gt;+排期类型+去确认状态&lt;/span&gt;" style="text;whiteSpace=wrap;html=1;" vertex="1" parent="3kLIK0iL_TZrR1ylsM3c-4">
          <mxGeometry x="45" y="2881" width="240" height="99" as="geometry" />
        </mxCell>
        <mxCell id="3kLIK0iL_TZrR1ylsM3c-45" value="修改商品排期数据表" style="rounded=1;whiteSpace=wrap;html=1;fontColor=#000000;" vertex="1" parent="WIyWlLk6GJQsqaUBKTNV-1">
          <mxGeometry x="610" y="5045" width="120" height="60" as="geometry" />
        </mxCell>
        <mxCell id="3kLIK0iL_TZrR1ylsM3c-53" value="解析MQ" style="rounded=1;whiteSpace=wrap;html=1;fontColor=#000000;" vertex="1" parent="WIyWlLk6GJQsqaUBKTNV-1">
          <mxGeometry x="690" y="5370" width="120" height="60" as="geometry" />
        </mxCell>
        <mxCell id="3kLIK0iL_TZrR1ylsM3c-54" value="修改商品排期数据表" style="rounded=1;whiteSpace=wrap;html=1;fontColor=#000000;" vertex="1" parent="WIyWlLk6GJQsqaUBKTNV-1">
          <mxGeometry x="690" y="5480" width="120" height="60" as="geometry" />
        </mxCell>
        <mxCell id="3kLIK0iL_TZrR1ylsM3c-55" style="edgeStyle=orthogonalEdgeStyle;rounded=0;orthogonalLoop=1;jettySize=auto;html=1;exitX=0.5;exitY=1;exitDx=0;exitDy=0;entryX=0.5;entryY=0;entryDx=0;entryDy=0;fontSize=14;fontColor=#000000;" edge="1" parent="WIyWlLk6GJQsqaUBKTNV-1" source="3kLIK0iL_TZrR1ylsM3c-53" target="3kLIK0iL_TZrR1ylsM3c-54">
          <mxGeometry relative="1" as="geometry" />
        </mxCell>
        <mxCell id="3kLIK0iL_TZrR1ylsM3c-56" value="发送MQ" style="rounded=1;whiteSpace=wrap;html=1;fontColor=#000000;" vertex="1" parent="WIyWlLk6GJQsqaUBKTNV-1">
          <mxGeometry x="1567.5" y="5370" width="135" height="60" as="geometry" />
        </mxCell>
        <mxCell id="3kLIK0iL_TZrR1ylsM3c-57" style="edgeStyle=orthogonalEdgeStyle;rounded=0;orthogonalLoop=1;jettySize=auto;html=1;exitX=0.5;exitY=1;exitDx=0;exitDy=0;fontColor=#000000;" edge="1" parent="WIyWlLk6GJQsqaUBKTNV-1" target="3kLIK0iL_TZrR1ylsM3c-56">
          <mxGeometry relative="1" as="geometry">
            <mxPoint x="1635" y="5320" as="sourcePoint" />
          </mxGeometry>
        </mxCell>
        <mxCell id="3kLIK0iL_TZrR1ylsM3c-58" style="edgeStyle=orthogonalEdgeStyle;rounded=0;orthogonalLoop=1;jettySize=auto;html=1;exitX=0;exitY=0.5;exitDx=0;exitDy=0;entryX=1;entryY=0.5;entryDx=0;entryDy=0;fontColor=#000000;" edge="1" parent="WIyWlLk6GJQsqaUBKTNV-1" source="3kLIK0iL_TZrR1ylsM3c-56" target="3kLIK0iL_TZrR1ylsM3c-53">
          <mxGeometry relative="1" as="geometry" />
        </mxCell>
        <mxCell id="3kLIK0iL_TZrR1ylsM3c-64" style="edgeStyle=orthogonalEdgeStyle;rounded=0;orthogonalLoop=1;jettySize=auto;html=1;exitX=0;exitY=0.5;exitDx=0;exitDy=0;entryX=1;entryY=0.5;entryDx=0;entryDy=0;" edge="1" parent="WIyWlLk6GJQsqaUBKTNV-1" source="3kLIK0iL_TZrR1ylsM3c-59" target="3kLIK0iL_TZrR1ylsM3c-61">
          <mxGeometry relative="1" as="geometry" />
        </mxCell>
        <mxCell id="3kLIK0iL_TZrR1ylsM3c-66" value="" style="shape=callout;whiteSpace=wrap;html=1;perimeter=calloutPerimeter;fillColor=#FFFFFF;" vertex="1" parent="WIyWlLk6GJQsqaUBKTNV-1">
          <mxGeometry x="-810" y="5010" width="120" height="80" as="geometry" />
        </mxCell>
        <mxCell id="3kLIK0iL_TZrR1ylsM3c-67" value="" style="shape=callout;whiteSpace=wrap;html=1;perimeter=calloutPerimeter;fillColor=#FFFFFF;" vertex="1" parent="WIyWlLk6GJQsqaUBKTNV-1">
          <mxGeometry x="-800" y="5320" width="120" height="80" as="geometry" />
        </mxCell>
        <mxCell id="3kLIK0iL_TZrR1ylsM3c-74" style="edgeStyle=orthogonalEdgeStyle;rounded=0;orthogonalLoop=1;jettySize=auto;html=1;exitX=0.5;exitY=1;exitDx=0;exitDy=0;entryX=0.5;entryY=0;entryDx=0;entryDy=0;" edge="1" parent="WIyWlLk6GJQsqaUBKTNV-1" source="3kLIK0iL_TZrR1ylsM3c-75" target="3kLIK0iL_TZrR1ylsM3c-76">
          <mxGeometry relative="1" as="geometry" />
        </mxCell>
        <mxCell id="3kLIK0iL_TZrR1ylsM3c-75" value="删除排期计划" style="rounded=1;whiteSpace=wrap;html=1;fontColor=#000000;" vertex="1" parent="WIyWlLk6GJQsqaUBKTNV-1">
          <mxGeometry x="297.5" y="5335" width="135" height="60" as="geometry" />
        </mxCell>
        <mxCell id="3kLIK0iL_TZrR1ylsM3c-76" value="发送MQ" style="rounded=1;whiteSpace=wrap;html=1;fontColor=#000000;" vertex="1" parent="WIyWlLk6GJQsqaUBKTNV-1">
          <mxGeometry x="297.5" y="5445" width="135" height="60" as="geometry" />
        </mxCell>
        <mxCell id="3kLIK0iL_TZrR1ylsM3c-77" style="edgeStyle=orthogonalEdgeStyle;rounded=0;orthogonalLoop=1;jettySize=auto;html=1;exitX=0.5;exitY=1;exitDx=0;exitDy=0;entryX=0.5;entryY=0;entryDx=0;entryDy=0;" edge="1" parent="WIyWlLk6GJQsqaUBKTNV-1" source="3kLIK0iL_TZrR1ylsM3c-78" target="3kLIK0iL_TZrR1ylsM3c-79">
          <mxGeometry relative="1" as="geometry" />
        </mxCell>
        <mxCell id="3kLIK0iL_TZrR1ylsM3c-78" value="解析MQ" style="rounded=1;whiteSpace=wrap;html=1;fontColor=#000000;" vertex="1" parent="WIyWlLk6GJQsqaUBKTNV-1">
          <mxGeometry x="-580" y="5445" width="120" height="60" as="geometry" />
        </mxCell>
        <mxCell id="3kLIK0iL_TZrR1ylsM3c-79" value="&lt;span&gt;修改商品排期数据表&lt;/span&gt;" style="rounded=1;whiteSpace=wrap;html=1;fillColor=#FFFFFF;" vertex="1" parent="WIyWlLk6GJQsqaUBKTNV-1">
          <mxGeometry x="-580" y="5555" width="120" height="50" as="geometry" />
        </mxCell>
        <mxCell id="3kLIK0iL_TZrR1ylsM3c-81" style="edgeStyle=orthogonalEdgeStyle;rounded=0;orthogonalLoop=1;jettySize=auto;html=1;exitX=0;exitY=0.5;exitDx=0;exitDy=0;entryX=1;entryY=0.5;entryDx=0;entryDy=0;" edge="1" parent="WIyWlLk6GJQsqaUBKTNV-1" source="3kLIK0iL_TZrR1ylsM3c-76" target="3kLIK0iL_TZrR1ylsM3c-78">
          <mxGeometry relative="1" as="geometry" />
        </mxCell>
        <mxCell id="3kLIK0iL_TZrR1ylsM3c-86" style="edgeStyle=orthogonalEdgeStyle;rounded=0;orthogonalLoop=1;jettySize=auto;html=1;exitX=1;exitY=0;exitDx=0;exitDy=0;endArrow=none;endFill=0;" edge="1" parent="WIyWlLk6GJQsqaUBKTNV-1">
          <mxGeometry relative="1" as="geometry">
            <mxPoint x="540" y="5640" as="targetPoint" />
            <mxPoint x="-640" y="5640.000000000001" as="sourcePoint" />
            <Array as="points">
              <mxPoint x="540" y="5640" />
            </Array>
          </mxGeometry>
        </mxCell>
        <mxCell id="3kLIK0iL_TZrR1ylsM3c-87" style="edgeStyle=orthogonalEdgeStyle;rounded=0;orthogonalLoop=1;jettySize=auto;html=1;exitX=0.5;exitY=1;exitDx=0;exitDy=0;entryX=0.5;entryY=0;entryDx=0;entryDy=0;" edge="1" parent="WIyWlLk6GJQsqaUBKTNV-1" source="3kLIK0iL_TZrR1ylsM3c-88" target="3kLIK0iL_TZrR1ylsM3c-89">
          <mxGeometry relative="1" as="geometry" />
        </mxCell>
        <mxCell id="3kLIK0iL_TZrR1ylsM3c-88" value="初审排期计划" style="rounded=1;whiteSpace=wrap;html=1;fontColor=#000000;" vertex="1" parent="WIyWlLk6GJQsqaUBKTNV-1">
          <mxGeometry x="305.5" y="5657" width="135" height="60" as="geometry" />
        </mxCell>
        <mxCell id="3kLIK0iL_TZrR1ylsM3c-89" value="发送MQ" style="rounded=1;whiteSpace=wrap;html=1;fontColor=#000000;" vertex="1" parent="WIyWlLk6GJQsqaUBKTNV-1">
          <mxGeometry x="305.5" y="5767" width="135" height="60" as="geometry" />
        </mxCell>
        <mxCell id="3kLIK0iL_TZrR1ylsM3c-90" style="edgeStyle=orthogonalEdgeStyle;rounded=0;orthogonalLoop=1;jettySize=auto;html=1;exitX=0.5;exitY=1;exitDx=0;exitDy=0;entryX=0.5;entryY=0;entryDx=0;entryDy=0;" edge="1" parent="WIyWlLk6GJQsqaUBKTNV-1" source="3kLIK0iL_TZrR1ylsM3c-91" target="3kLIK0iL_TZrR1ylsM3c-92">
          <mxGeometry relative="1" as="geometry" />
        </mxCell>
        <mxCell id="3kLIK0iL_TZrR1ylsM3c-91" value="解析MQ" style="rounded=1;whiteSpace=wrap;html=1;fontColor=#000000;" vertex="1" parent="WIyWlLk6GJQsqaUBKTNV-1">
          <mxGeometry x="-572" y="5767" width="120" height="60" as="geometry" />
        </mxCell>
        <mxCell id="3kLIK0iL_TZrR1ylsM3c-92" value="&lt;span&gt;修改商品排期数据表&lt;/span&gt;" style="rounded=1;whiteSpace=wrap;html=1;fillColor=#FFFFFF;" vertex="1" parent="WIyWlLk6GJQsqaUBKTNV-1">
          <mxGeometry x="-572" y="5877" width="120" height="50" as="geometry" />
        </mxCell>
        <mxCell id="3kLIK0iL_TZrR1ylsM3c-94" style="edgeStyle=orthogonalEdgeStyle;rounded=0;orthogonalLoop=1;jettySize=auto;html=1;exitX=0;exitY=0.5;exitDx=0;exitDy=0;entryX=1;entryY=0.5;entryDx=0;entryDy=0;" edge="1" parent="WIyWlLk6GJQsqaUBKTNV-1" source="3kLIK0iL_TZrR1ylsM3c-89" target="3kLIK0iL_TZrR1ylsM3c-91">
          <mxGeometry relative="1" as="geometry" />
        </mxCell>
        <mxCell id="3kLIK0iL_TZrR1ylsM3c-95" style="edgeStyle=orthogonalEdgeStyle;rounded=0;orthogonalLoop=1;jettySize=auto;html=1;exitX=0.5;exitY=1;exitDx=0;exitDy=0;entryX=0.5;entryY=0;entryDx=0;entryDy=0;" edge="1" parent="WIyWlLk6GJQsqaUBKTNV-1" source="3kLIK0iL_TZrR1ylsM3c-96" target="3kLIK0iL_TZrR1ylsM3c-97">
          <mxGeometry relative="1" as="geometry" />
        </mxCell>
        <mxCell id="3kLIK0iL_TZrR1ylsM3c-96" value="撤回排期计划" style="rounded=1;whiteSpace=wrap;html=1;fontColor=#000000;" vertex="1" parent="WIyWlLk6GJQsqaUBKTNV-1">
          <mxGeometry x="306.5" y="5847" width="135" height="60" as="geometry" />
        </mxCell>
        <mxCell id="3kLIK0iL_TZrR1ylsM3c-97" value="发送MQ" style="rounded=1;whiteSpace=wrap;html=1;fontColor=#000000;" vertex="1" parent="WIyWlLk6GJQsqaUBKTNV-1">
          <mxGeometry x="306.5" y="5957" width="135" height="60" as="geometry" />
        </mxCell>
        <mxCell id="3kLIK0iL_TZrR1ylsM3c-98" style="edgeStyle=orthogonalEdgeStyle;rounded=0;orthogonalLoop=1;jettySize=auto;html=1;exitX=0.5;exitY=1;exitDx=0;exitDy=0;entryX=0.5;entryY=0;entryDx=0;entryDy=0;" edge="1" parent="WIyWlLk6GJQsqaUBKTNV-1" source="3kLIK0iL_TZrR1ylsM3c-99" target="3kLIK0iL_TZrR1ylsM3c-100">
          <mxGeometry relative="1" as="geometry" />
        </mxCell>
        <mxCell id="3kLIK0iL_TZrR1ylsM3c-99" value="解析MQ" style="rounded=1;whiteSpace=wrap;html=1;fontColor=#000000;" vertex="1" parent="WIyWlLk6GJQsqaUBKTNV-1">
          <mxGeometry x="-571" y="5957" width="120" height="60" as="geometry" />
        </mxCell>
        <mxCell id="3kLIK0iL_TZrR1ylsM3c-100" value="&lt;span&gt;修改商品排期数据表&lt;/span&gt;" style="rounded=1;whiteSpace=wrap;html=1;fillColor=#FFFFFF;" vertex="1" parent="WIyWlLk6GJQsqaUBKTNV-1">
          <mxGeometry x="-571" y="6067" width="120" height="50" as="geometry" />
        </mxCell>
        <mxCell id="3kLIK0iL_TZrR1ylsM3c-102" style="edgeStyle=orthogonalEdgeStyle;rounded=0;orthogonalLoop=1;jettySize=auto;html=1;exitX=0;exitY=0.5;exitDx=0;exitDy=0;entryX=1;entryY=0.5;entryDx=0;entryDy=0;" edge="1" parent="WIyWlLk6GJQsqaUBKTNV-1" source="3kLIK0iL_TZrR1ylsM3c-97" target="3kLIK0iL_TZrR1ylsM3c-99">
          <mxGeometry relative="1" as="geometry" />
        </mxCell>
        <mxCell id="3kLIK0iL_TZrR1ylsM3c-103" style="edgeStyle=orthogonalEdgeStyle;rounded=0;orthogonalLoop=1;jettySize=auto;html=1;exitX=1;exitY=1;exitDx=0;exitDy=0;endArrow=none;endFill=0;" edge="1" parent="WIyWlLk6GJQsqaUBKTNV-1" source="3kLIK0iL_TZrR1ylsM3c-82">
          <mxGeometry relative="1" as="geometry">
            <mxPoint x="540" y="6150" as="targetPoint" />
            <Array as="points">
              <mxPoint x="540" y="6150" />
            </Array>
          </mxGeometry>
        </mxCell>
        <mxCell id="3kLIK0iL_TZrR1ylsM3c-113" style="edgeStyle=orthogonalEdgeStyle;rounded=0;orthogonalLoop=1;jettySize=auto;html=1;exitX=0;exitY=0.5;exitDx=0;exitDy=0;entryX=1;entryY=0.5;entryDx=0;entryDy=0;endArrow=classic;endFill=1;" edge="1" parent="WIyWlLk6GJQsqaUBKTNV-1" source="3kLIK0iL_TZrR1ylsM3c-108" target="3kLIK0iL_TZrR1ylsM3c-111">
          <mxGeometry relative="1" as="geometry" />
        </mxCell>
        <mxCell id="3kLIK0iL_TZrR1ylsM3c-115" style="edgeStyle=orthogonalEdgeStyle;rounded=0;orthogonalLoop=1;jettySize=auto;html=1;exitX=1;exitY=1;exitDx=0;exitDy=0;endArrow=none;endFill=0;" edge="1" parent="WIyWlLk6GJQsqaUBKTNV-1" source="3kLIK0iL_TZrR1ylsM3c-104">
          <mxGeometry relative="1" as="geometry">
            <mxPoint x="540" y="6520" as="targetPoint" />
            <Array as="points">
              <mxPoint x="540" y="6520" />
            </Array>
          </mxGeometry>
        </mxCell>
        <mxCell id="3kLIK0iL_TZrR1ylsM3c-117" style="edgeStyle=orthogonalEdgeStyle;rounded=0;orthogonalLoop=1;jettySize=auto;html=1;exitX=0.5;exitY=1;exitDx=0;exitDy=0;entryX=0.5;entryY=0;entryDx=0;entryDy=0;" edge="1" parent="WIyWlLk6GJQsqaUBKTNV-1" target="3kLIK0iL_TZrR1ylsM3c-119">
          <mxGeometry relative="1" as="geometry">
            <mxPoint x="383" y="5727" as="sourcePoint" />
          </mxGeometry>
        </mxCell>
        <mxCell id="3kLIK0iL_TZrR1ylsM3c-138" style="edgeStyle=orthogonalEdgeStyle;rounded=0;orthogonalLoop=1;jettySize=auto;html=1;exitX=0.5;exitY=1;exitDx=0;exitDy=0;entryX=0.5;entryY=0;entryDx=0;entryDy=0;endArrow=classic;endFill=1;" edge="1" parent="WIyWlLk6GJQsqaUBKTNV-1" source="3kLIK0iL_TZrR1ylsM3c-124" target="3kLIK0iL_TZrR1ylsM3c-125">
          <mxGeometry relative="1" as="geometry" />
        </mxCell>
        <mxCell id="3kLIK0iL_TZrR1ylsM3c-124" value="排期计划阈值审批" style="rounded=1;whiteSpace=wrap;html=1;fontColor=#000000;" vertex="1" parent="WIyWlLk6GJQsqaUBKTNV-1">
          <mxGeometry x="322.5" y="6539" width="120" height="39" as="geometry" />
        </mxCell>
        <mxCell id="3kLIK0iL_TZrR1ylsM3c-125" value="发送MQ" style="rounded=1;whiteSpace=wrap;html=1;fontColor=#000000;" vertex="1" parent="WIyWlLk6GJQsqaUBKTNV-1">
          <mxGeometry x="327.5" y="6619" width="110" height="39" as="geometry" />
        </mxCell>
        <mxCell id="3kLIK0iL_TZrR1ylsM3c-126" value="解析MQ" style="rounded=1;whiteSpace=wrap;html=1;fontColor=#000000;" vertex="1" parent="WIyWlLk6GJQsqaUBKTNV-1">
          <mxGeometry x="-570" y="6619" width="120" height="40" as="geometry" />
        </mxCell>
        <mxCell id="3kLIK0iL_TZrR1ylsM3c-127" value="&lt;span&gt;修改商品排期数据表&lt;/span&gt;" style="rounded=1;whiteSpace=wrap;html=1;fillColor=#FFFFFF;" vertex="1" parent="WIyWlLk6GJQsqaUBKTNV-1">
          <mxGeometry x="-570" y="6699" width="120" height="40" as="geometry" />
        </mxCell>
        <mxCell id="3kLIK0iL_TZrR1ylsM3c-128" style="edgeStyle=orthogonalEdgeStyle;rounded=0;orthogonalLoop=1;jettySize=auto;html=1;exitX=0.5;exitY=1;exitDx=0;exitDy=0;entryX=0.5;entryY=0;entryDx=0;entryDy=0;" edge="1" parent="WIyWlLk6GJQsqaUBKTNV-1" source="3kLIK0iL_TZrR1ylsM3c-126" target="3kLIK0iL_TZrR1ylsM3c-127">
          <mxGeometry relative="1" as="geometry" />
        </mxCell>
        <mxCell id="3kLIK0iL_TZrR1ylsM3c-130" style="edgeStyle=orthogonalEdgeStyle;rounded=0;orthogonalLoop=1;jettySize=auto;html=1;exitX=0;exitY=0.5;exitDx=0;exitDy=0;entryX=1;entryY=0.5;entryDx=0;entryDy=0;endArrow=classic;endFill=1;" edge="1" parent="WIyWlLk6GJQsqaUBKTNV-1" source="3kLIK0iL_TZrR1ylsM3c-125" target="3kLIK0iL_TZrR1ylsM3c-126">
          <mxGeometry relative="1" as="geometry" />
        </mxCell>
        <mxCell id="3kLIK0iL_TZrR1ylsM3c-134" style="edgeStyle=orthogonalEdgeStyle;rounded=0;orthogonalLoop=1;jettySize=auto;html=1;exitX=0.5;exitY=1;exitDx=0;exitDy=0;entryX=0.5;entryY=0;entryDx=0;entryDy=0;" edge="1" parent="WIyWlLk6GJQsqaUBKTNV-1" target="3kLIK0iL_TZrR1ylsM3c-136">
          <mxGeometry relative="1" as="geometry">
            <mxPoint x="-492" y="6106" as="sourcePoint" />
          </mxGeometry>
        </mxCell>
        <mxCell id="3kLIK0iL_TZrR1ylsM3c-139" style="edgeStyle=orthogonalEdgeStyle;rounded=0;orthogonalLoop=1;jettySize=auto;html=1;exitX=1;exitY=1;exitDx=0;exitDy=0;endArrow=none;endFill=0;" edge="1" parent="WIyWlLk6GJQsqaUBKTNV-1" source="3kLIK0iL_TZrR1ylsM3c-116">
          <mxGeometry relative="1" as="geometry">
            <mxPoint x="540" y="6780" as="targetPoint" />
            <Array as="points">
              <mxPoint x="540" y="6780" />
            </Array>
          </mxGeometry>
        </mxCell>
        <mxCell id="3kLIK0iL_TZrR1ylsM3c-148" style="edgeStyle=orthogonalEdgeStyle;rounded=0;orthogonalLoop=1;jettySize=auto;html=1;exitX=0.5;exitY=1;exitDx=0;exitDy=0;entryX=0.5;entryY=0;entryDx=0;entryDy=0;endArrow=classic;endFill=1;" edge="1" parent="WIyWlLk6GJQsqaUBKTNV-1" source="3kLIK0iL_TZrR1ylsM3c-149" target="3kLIK0iL_TZrR1ylsM3c-150">
          <mxGeometry relative="1" as="geometry" />
        </mxCell>
        <mxCell id="3kLIK0iL_TZrR1ylsM3c-149" value="修改排期商品状态" style="rounded=1;whiteSpace=wrap;html=1;fontColor=#000000;" vertex="1" parent="WIyWlLk6GJQsqaUBKTNV-1">
          <mxGeometry x="323.5" y="6863" width="120" height="39" as="geometry" />
        </mxCell>
        <mxCell id="3kLIK0iL_TZrR1ylsM3c-150" value="发送MQ" style="rounded=1;whiteSpace=wrap;html=1;fontColor=#000000;" vertex="1" parent="WIyWlLk6GJQsqaUBKTNV-1">
          <mxGeometry x="328.5" y="6943" width="110" height="39" as="geometry" />
        </mxCell>
        <mxCell id="3kLIK0iL_TZrR1ylsM3c-151" value="解析MQ" style="rounded=1;whiteSpace=wrap;html=1;fontColor=#000000;" vertex="1" parent="WIyWlLk6GJQsqaUBKTNV-1">
          <mxGeometry x="-569" y="6943" width="120" height="40" as="geometry" />
        </mxCell>
        <mxCell id="3kLIK0iL_TZrR1ylsM3c-152" value="&lt;span&gt;修改商品排期数据表&lt;/span&gt;" style="rounded=1;whiteSpace=wrap;html=1;fillColor=#FFFFFF;" vertex="1" parent="WIyWlLk6GJQsqaUBKTNV-1">
          <mxGeometry x="-569" y="7023" width="120" height="40" as="geometry" />
        </mxCell>
        <mxCell id="3kLIK0iL_TZrR1ylsM3c-153" style="edgeStyle=orthogonalEdgeStyle;rounded=0;orthogonalLoop=1;jettySize=auto;html=1;exitX=0.5;exitY=1;exitDx=0;exitDy=0;entryX=0.5;entryY=0;entryDx=0;entryDy=0;" edge="1" parent="WIyWlLk6GJQsqaUBKTNV-1" source="3kLIK0iL_TZrR1ylsM3c-151" target="3kLIK0iL_TZrR1ylsM3c-152">
          <mxGeometry relative="1" as="geometry" />
        </mxCell>
        <mxCell id="3kLIK0iL_TZrR1ylsM3c-154" style="edgeStyle=orthogonalEdgeStyle;rounded=0;orthogonalLoop=1;jettySize=auto;html=1;exitX=0;exitY=0.5;exitDx=0;exitDy=0;entryX=1;entryY=0.5;entryDx=0;entryDy=0;endArrow=classic;endFill=1;" edge="1" parent="WIyWlLk6GJQsqaUBKTNV-1" source="3kLIK0iL_TZrR1ylsM3c-150" target="3kLIK0iL_TZrR1ylsM3c-151">
          <mxGeometry relative="1" as="geometry" />
        </mxCell>
        <mxCell id="3kLIK0iL_TZrR1ylsM3c-155" style="edgeStyle=orthogonalEdgeStyle;rounded=0;orthogonalLoop=1;jettySize=auto;html=1;exitX=0.5;exitY=1;exitDx=0;exitDy=0;entryX=0.5;entryY=0;entryDx=0;entryDy=0;endArrow=classic;endFill=1;" edge="1" parent="WIyWlLk6GJQsqaUBKTNV-1" source="3kLIK0iL_TZrR1ylsM3c-156" target="3kLIK0iL_TZrR1ylsM3c-157">
          <mxGeometry relative="1" as="geometry" />
        </mxCell>
        <mxCell id="3kLIK0iL_TZrR1ylsM3c-156" value="排期计划删除" style="rounded=1;whiteSpace=wrap;html=1;fontColor=#000000;" vertex="1" parent="WIyWlLk6GJQsqaUBKTNV-1">
          <mxGeometry x="324.5" y="7092" width="120" height="39" as="geometry" />
        </mxCell>
        <mxCell id="3kLIK0iL_TZrR1ylsM3c-157" value="发送MQ" style="rounded=1;whiteSpace=wrap;html=1;fontColor=#000000;" vertex="1" parent="WIyWlLk6GJQsqaUBKTNV-1">
          <mxGeometry x="329.5" y="7172" width="110" height="39" as="geometry" />
        </mxCell>
        <mxCell id="3kLIK0iL_TZrR1ylsM3c-158" value="解析MQ" style="rounded=1;whiteSpace=wrap;html=1;fontColor=#000000;" vertex="1" parent="WIyWlLk6GJQsqaUBKTNV-1">
          <mxGeometry x="-568" y="7172" width="120" height="40" as="geometry" />
        </mxCell>
        <mxCell id="3kLIK0iL_TZrR1ylsM3c-159" value="&lt;span&gt;修改商品排期数据表&lt;/span&gt;" style="rounded=1;whiteSpace=wrap;html=1;fillColor=#FFFFFF;" vertex="1" parent="WIyWlLk6GJQsqaUBKTNV-1">
          <mxGeometry x="-568" y="7252" width="120" height="40" as="geometry" />
        </mxCell>
        <mxCell id="3kLIK0iL_TZrR1ylsM3c-160" style="edgeStyle=orthogonalEdgeStyle;rounded=0;orthogonalLoop=1;jettySize=auto;html=1;exitX=0.5;exitY=1;exitDx=0;exitDy=0;entryX=0.5;entryY=0;entryDx=0;entryDy=0;" edge="1" parent="WIyWlLk6GJQsqaUBKTNV-1" source="3kLIK0iL_TZrR1ylsM3c-158" target="3kLIK0iL_TZrR1ylsM3c-159">
          <mxGeometry relative="1" as="geometry" />
        </mxCell>
        <mxCell id="3kLIK0iL_TZrR1ylsM3c-161" style="edgeStyle=orthogonalEdgeStyle;rounded=0;orthogonalLoop=1;jettySize=auto;html=1;exitX=0;exitY=0.5;exitDx=0;exitDy=0;entryX=1;entryY=0.5;entryDx=0;entryDy=0;endArrow=classic;endFill=1;" edge="1" parent="WIyWlLk6GJQsqaUBKTNV-1" source="3kLIK0iL_TZrR1ylsM3c-157" target="3kLIK0iL_TZrR1ylsM3c-158">
          <mxGeometry relative="1" as="geometry" />
        </mxCell>
        <mxCell id="3kLIK0iL_TZrR1ylsM3c-163" style="edgeStyle=orthogonalEdgeStyle;rounded=0;orthogonalLoop=1;jettySize=auto;html=1;exitX=0.5;exitY=1;exitDx=0;exitDy=0;entryX=0.5;entryY=0;entryDx=0;entryDy=0;endArrow=classic;endFill=1;" edge="1" parent="WIyWlLk6GJQsqaUBKTNV-1" source="3kLIK0iL_TZrR1ylsM3c-162" target="3kLIK0iL_TZrR1ylsM3c-149">
          <mxGeometry relative="1" as="geometry" />
        </mxCell>
        <mxCell id="3kLIK0iL_TZrR1ylsM3c-177" style="edgeStyle=orthogonalEdgeStyle;rounded=0;orthogonalLoop=1;jettySize=auto;html=1;exitX=0.5;exitY=1;exitDx=0;exitDy=0;entryX=0.5;entryY=0;entryDx=0;entryDy=0;endArrow=classic;endFill=1;" edge="1" parent="WIyWlLk6GJQsqaUBKTNV-1" source="3kLIK0iL_TZrR1ylsM3c-178" target="3kLIK0iL_TZrR1ylsM3c-179">
          <mxGeometry relative="1" as="geometry" />
        </mxCell>
        <mxCell id="3kLIK0iL_TZrR1ylsM3c-178" value="商品排期修改排期计划状态" style="rounded=1;whiteSpace=wrap;html=1;fontColor=#000000;" vertex="1" parent="WIyWlLk6GJQsqaUBKTNV-1">
          <mxGeometry x="325.5" y="7321" width="120" height="39" as="geometry" />
        </mxCell>
        <mxCell id="3kLIK0iL_TZrR1ylsM3c-179" value="发送MQ" style="rounded=1;whiteSpace=wrap;html=1;fontColor=#000000;" vertex="1" parent="WIyWlLk6GJQsqaUBKTNV-1">
          <mxGeometry x="330.5" y="7401" width="110" height="39" as="geometry" />
        </mxCell>
        <mxCell id="3kLIK0iL_TZrR1ylsM3c-180" value="解析MQ" style="rounded=1;whiteSpace=wrap;html=1;fontColor=#000000;" vertex="1" parent="WIyWlLk6GJQsqaUBKTNV-1">
          <mxGeometry x="-567" y="7401" width="120" height="40" as="geometry" />
        </mxCell>
        <mxCell id="3kLIK0iL_TZrR1ylsM3c-181" value="&lt;span&gt;修改商品排期数据表&lt;/span&gt;" style="rounded=1;whiteSpace=wrap;html=1;fillColor=#FFFFFF;" vertex="1" parent="WIyWlLk6GJQsqaUBKTNV-1">
          <mxGeometry x="-567" y="7481" width="120" height="40" as="geometry" />
        </mxCell>
        <mxCell id="3kLIK0iL_TZrR1ylsM3c-182" style="edgeStyle=orthogonalEdgeStyle;rounded=0;orthogonalLoop=1;jettySize=auto;html=1;exitX=0.5;exitY=1;exitDx=0;exitDy=0;entryX=0.5;entryY=0;entryDx=0;entryDy=0;" edge="1" parent="WIyWlLk6GJQsqaUBKTNV-1" source="3kLIK0iL_TZrR1ylsM3c-180" target="3kLIK0iL_TZrR1ylsM3c-181">
          <mxGeometry relative="1" as="geometry" />
        </mxCell>
        <mxCell id="3kLIK0iL_TZrR1ylsM3c-183" style="edgeStyle=orthogonalEdgeStyle;rounded=0;orthogonalLoop=1;jettySize=auto;html=1;exitX=0;exitY=0.5;exitDx=0;exitDy=0;entryX=1;entryY=0.5;entryDx=0;entryDy=0;endArrow=classic;endFill=1;" edge="1" parent="WIyWlLk6GJQsqaUBKTNV-1" source="3kLIK0iL_TZrR1ylsM3c-179" target="3kLIK0iL_TZrR1ylsM3c-180">
          <mxGeometry relative="1" as="geometry" />
        </mxCell>
        <mxCell id="3kLIK0iL_TZrR1ylsM3c-185" style="edgeStyle=orthogonalEdgeStyle;rounded=0;orthogonalLoop=1;jettySize=auto;html=1;exitX=0.5;exitY=1;exitDx=0;exitDy=0;endArrow=classic;endFill=1;" edge="1" parent="WIyWlLk6GJQsqaUBKTNV-1" source="3kLIK0iL_TZrR1ylsM3c-184" target="3kLIK0iL_TZrR1ylsM3c-178">
          <mxGeometry relative="1" as="geometry" />
        </mxCell>
      </root>
    </mxGraphModel>
  </diagram>
</mxfile>
